<?xml version="1.0" standalone="no"?>
<!DOCTYPE svg PUBLIC "-//W3C//DTD SVG 20010904//EN"
 "http://www.w3.org/TR/2001/REC-SVG-20010904/DTD/svg10.dtd">
<svg version="1.0" xmlns="http://www.w3.org/2000/svg"
 width="1080.000000pt" height="1080.000000pt" viewBox="0 0 1080.000000 1080.000000"
 preserveAspectRatio="xMidYMid meet">
<metadata>
Created by potrace 1.16, written by Peter Selinger 2001-2019
</metadata>
<g transform="translate(0.000000,1080.000000) scale(0.100000,-0.100000)"
fill="#000000" stroke="none">
<path d="M0 5400 l0 -5400 2430 0 2430 0 0 21 c0 18 4 20 28 14 15 -3 235 -9
490 -12 259 -3 462 -9 462 -14 0 -14 48 -11 53 4 4 10 6 10 6 0 1 -10 498 -13
2451 -13 l2450 0 0 2320 0 2320 -40 0 -40 0 0 120 c0 118 0 120 -22 120 l-23
0 0 487 c0 269 -3 503 -7 521 -7 31 -6 32 22 32 l30 0 0 80 0 80 40 0 40 0 0
240 0 240 -40 0 -40 0 0 80 0 80 40 0 40 0 0 2040 0 2040 -5400 0 -5400 0 0
-5400z m5766 5320 c929 -73 1783 -368 2538 -875 332 -223 541 -395 809 -665
276 -278 488 -539 688 -845 420 -641 699 -1370 814 -2130 40 -259 47 -365 52
-750 5 -352 3 -411 -17 -600 -44 -429 -107 -731 -240 -1150 -135 -428 -385
-941 -647 -1330 -300 -447 -696 -875 -1108 -1200 -581 -458 -1209 -774 -1920
-964 -129 -35 -221 -55 -510 -111 -360 -70 -1041 -81 -1495 -25 -574 72 -1173
252 -1690 511 -107 54 -119 57 -177 55 l-63 -2 0 30 0 31 46 -26 c25 -14 48
-24 50 -21 4 4 -120 77 -131 77 -3 0 -31 17 -62 37 -55 35 -62 37 -131 34 -71
-2 -73 -2 -60 18 19 31 37 33 69 10 17 -12 32 -19 34 -17 3 2 -53 42 -123 88
-70 46 -156 105 -192 131 -36 27 -85 63 -110 81 -48 35 -252 198 -260 208 -3
3 -27 26 -55 51 -38 34 -46 38 -32 17 l17 -28 -50 0 -50 0 0 40 0 40 -40 0
-40 0 0 40 0 40 -40 0 -40 0 0 40 0 40 -40 0 -40 0 0 40 0 40 -40 0 -40 0 0
40 0 40 -40 0 -40 0 0 40 0 40 -40 0 -40 0 0 66 0 65 26 -28 c24 -26 24 -25
-3 12 -15 22 -43 56 -62 75 -19 19 -25 23 -13 9 28 -33 28 -39 -4 -39 -24 0
-25 3 -23 40 2 29 -2 45 -16 58 -18 16 -18 16 -6 0 12 -16 10 -18 -23 -18 -35
0 -36 1 -36 40 l0 40 -40 0 -40 0 0 62 0 62 46 -62 c25 -34 48 -62 51 -62 3 0
-7 17 -23 38 -15 20 -39 53 -53 72 -40 54 -43 56 -73 52 -26 -4 -28 -2 -28 29
l0 32 27 -24 c19 -16 23 -17 12 -4 -9 11 -24 35 -33 52 -9 18 -22 33 -28 33
-9 0 -9 -3 0 -12 20 -20 14 -28 -23 -28 l-35 0 0 63 0 62 26 -40 c30 -47 28
-38 -6 27 -22 45 -27 48 -62 48 l-38 0 0 43 c1 46 -3 48 46 -18 24 -33 10 -6
-45 88 -29 49 -55 86 -58 84 -2 -3 10 -25 27 -50 16 -25 30 -50 30 -56 0 -6
-17 -11 -40 -11 l-40 0 0 71 c0 44 4 68 10 64 15 -9 12 1 -11 46 -11 23 -23
38 -26 35 -3 -3 2 -17 11 -31 l16 -25 -40 0 -41 0 2 83 c2 73 -1 89 -29 150
-18 37 -34 67 -37 67 -3 0 7 -26 21 -58 14 -31 28 -63 31 -69 4 -9 -6 -13 -32
-13 l-37 0 4 95 c2 65 -1 98 -10 107 -15 15 -16 4 -2 -23 10 -17 7 -19 -30
-19 l-41 0 2 102 c1 77 -3 112 -15 138 -9 19 -14 27 -11 17 3 -13 -2 -17 -26
-17 l-31 0 4 80 3 80 -43 0 -43 0 3 123 3 122 -43 -4 -43 -3 1 148 c1 82 1
155 1 162 -1 7 -16 12 -41 12 l-40 0 1 148 c1 89 4 137 9 122 4 -14 8 -37 9
-52 1 -29 19 -83 26 -77 2 2 -3 33 -10 69 -24 109 -64 367 -81 520 -25 225
-31 789 -10 1016 48 510 145 965 292 1365 45 123 56 138 83 122 12 -7 29 -13
39 -13 10 0 22 -4 27 -9 6 -4 28 -13 50 -19 133 -35 167 -61 184 -142 16 -74
14 -125 -10 -242 -12 -57 -25 -121 -29 -143 -20 -96 -70 -258 -86 -276 -9 -10
-25 -19 -34 -19 -9 0 -43 -13 -76 -29 -32 -15 -108 -50 -168 -77 -108 -49
-109 -49 -132 -102 -27 -58 -29 -80 -14 -134 10 -35 12 -36 77 -48 37 -6 72
-14 77 -18 6 -4 34 -12 63 -18 46 -9 54 -8 71 8 21 21 20 21 154 12 65 -4 102
-11 109 -21 9 -10 9 -41 1 -126 -7 -62 -14 -177 -17 -257 -7 -182 -12 -231
-23 -242 -5 -5 -43 -11 -83 -14 -54 -3 -77 -9 -87 -21 -21 -29 -11 -243 28
-553 16 -130 71 -421 100 -529 5 -20 23 -88 40 -151 91 -335 218 -643 420
-1015 52 -95 113 -200 119 -205 12 -10 61 -86 61 -95 0 -4 17 -31 38 -59 21
-28 47 -66 57 -84 11 -17 25 -32 32 -32 7 0 13 -9 13 -20 0 -18 11 -25 33 -21
5 1 6 -2 3 -7 -3 -5 4 -20 15 -34 27 -33 69 -28 69 8 0 28 -44 120 -60 126 -6
2 -12 10 -13 18 -2 13 -55 101 -93 155 -41 57 -65 97 -99 163 -21 39 -42 72
-47 72 -4 0 -8 7 -8 16 0 8 -14 43 -31 77 -63 123 -69 136 -69 145 0 6 -6 12
-14 15 -7 3 -16 23 -19 45 -2 23 -19 70 -36 106 -17 36 -36 87 -41 113 -6 26
-15 52 -19 58 -15 19 -50 130 -62 195 -6 36 -16 69 -20 74 -5 6 -9 17 -9 25 1
21 17 -7 40 -68 24 -64 108 -267 132 -321 68 -151 240 -476 313 -590 83 -130
107 -166 173 -260 126 -177 248 -324 294 -354 15 -10 30 -27 34 -39 4 -12 32
-51 63 -88 149 -176 233 -269 241 -269 4 0 26 -18 47 -41 57 -60 652 -479 743
-522 8 -4 42 -23 75 -43 109 -64 438 -221 580 -277 122 -48 341 -122 415 -142
14 -3 66 -17 115 -30 91 -24 261 -61 345 -76 25 -4 74 -12 110 -18 354 -59
910 -66 1295 -15 248 32 607 115 849 196 276 92 689 278 898 405 88 54 246
133 264 133 9 0 12 5 8 12 -5 8 0 9 17 5 13 -4 32 -7 42 -7 10 0 17 -8 17 -20
0 -14 7 -20 23 -20 12 0 32 -3 44 -6 17 -5 22 -1 25 18 2 19 10 23 46 26 28 2
42 8 42 18 0 8 8 14 19 14 10 0 27 11 37 25 10 14 27 25 36 25 10 0 18 7 18
15 0 8 5 15 11 15 6 0 20 11 31 25 11 14 24 25 29 25 16 0 47 38 51 61 2 16
14 26 46 37 43 14 52 34 36 76 -8 21 -50 21 -58 0 -4 -10 -13 -13 -27 -9 -14
5 -33 -2 -60 -21 -72 -49 -54 -16 47 88 55 57 106 117 113 135 7 18 22 34 35
37 34 8 280 283 415 461 29 39 67 88 84 109 57 71 77 99 144 211 175 293 295
524 438 845 25 58 50 109 56 114 14 15 11 -11 -5 -42 -8 -15 -17 -50 -21 -77
-15 -102 -138 -397 -250 -599 -57 -105 -65 -120 -65 -134 0 -7 -4 -11 -8 -8
-4 2 -8 -3 -9 -12 -3 -35 -23 -73 -35 -66 -6 4 -8 3 -4 -4 5 -9 -56 -136 -73
-152 -6 -5 -6 -25 -2 -57 3 -26 49 -13 79 21 87 99 310 494 426 753 217 485
371 1130 401 1668 5 91 8 102 30 122 30 26 30 28 7 30 -10 1 -63 9 -118 18
-136 22 -272 42 -379 55 -49 7 -142 18 -205 27 -63 8 -162 21 -220 29 -58 8
-148 19 -200 25 -52 6 -98 13 -101 17 -4 4 -9 37 -13 75 l-7 67 61 0 c33 0 93
-9 132 -20 40 -11 100 -20 133 -20 33 0 93 -9 132 -20 40 -10 119 -24 175 -30
57 -7 129 -18 160 -26 52 -13 358 -37 366 -29 2 2 -1 19 -6 37 -6 18 -13 60
-17 92 -4 33 -11 71 -16 84 -5 13 -12 54 -15 92 -7 82 13 131 81 202 47 49 54
68 32 86 -13 11 -110 33 -222 51 -159 26 -233 39 -270 49 -22 6 -80 16 -130
22 -49 6 -126 20 -170 30 -44 10 -107 22 -140 25 -33 4 -106 18 -162 31 -57
14 -140 30 -185 36 -46 6 -86 16 -90 22 -4 6 -8 30 -8 53 0 62 -46 113 -102
113 -56 0 -95 -26 -119 -81 -21 -46 -22 -47 -63 -41 -22 2 -52 9 -66 14 -24 9
-23 10 20 29 46 21 110 75 110 93 0 6 12 25 28 43 l27 32 50 -13 c28 -8 93
-24 145 -35 52 -12 163 -37 245 -56 83 -19 182 -41 220 -49 39 -8 111 -24 160
-35 277 -63 422 -90 426 -81 10 22 -53 291 -113 490 -278 911 -826 1711 -1592
2326 -164 131 -403 301 -466 331 -14 6 -115 69 -150 94 -8 5 -22 14 -30 19
-26 16 -2 23 32 10 67 -27 289 -140 298 -152 3 -4 26 -17 50 -28 60 -28 128
-67 167 -96 39 -29 63 -30 86 -4 9 11 17 22 17 25 0 2 -25 23 -56 46 -31 23
-65 50 -75 60 -11 11 -25 19 -31 19 -7 0 -24 12 -37 26 -28 29 -100 79 -201
139 -37 22 -73 45 -81 51 -8 6 -72 42 -144 79 -71 37 -134 71 -140 75 -5 5
-39 20 -75 35 -36 15 -83 35 -105 45 -188 86 -394 154 -690 230 -355 90 -601
131 -915 151 -263 17 -645 3 -875 -32 -384 -57 -847 -174 -1095 -276 -47 -20
-106 -44 -132 -54 -44 -17 -156 -71 -188 -90 -35 -21 -138 -69 -147 -69 -6 0
-16 -6 -22 -14 -7 -8 -35 -27 -63 -41 -28 -15 -58 -33 -65 -41 -8 -8 -19 -14
-24 -14 -5 0 -14 -11 -19 -25 -5 -14 -17 -25 -25 -25 -9 0 -13 -4 -10 -10 3
-5 -1 -10 -11 -10 -12 0 -15 -6 -11 -21 4 -14 -1 -22 -15 -28 -20 -7 -20 -8
-3 -15 10 -4 21 -3 24 2 3 5 17 13 31 17 23 7 23 8 5 15 -15 5 -10 8 21 13 46
8 96 30 114 52 7 8 27 15 45 15 18 0 58 13 88 29 30 16 72 34 93 41 38 11 84
30 134 56 53 26 162 35 121 9 -5 -3 -7 -21 -4 -41 7 -44 -16 -211 -31 -222
-20 -16 -77 -35 -83 -28 -3 3 -12 49 -19 102 -8 54 -16 99 -18 102 -9 9 -239
-113 -426 -226 -533 -322 -974 -720 -1349 -1216 -68 -89 -80 -111 -69 -121 7
-7 103 -31 213 -53 260 -53 453 -96 590 -132 61 -16 155 -36 210 -45 55 -9
115 -21 133 -27 18 -5 56 -13 85 -18 29 -4 77 -15 107 -24 78 -23 193 -40 224
-32 14 3 81 52 147 108 313 260 613 434 979 566 490 177 1047 227 1580 141
655 -105 1273 -428 1748 -911 56 -58 102 -109 102 -113 0 -5 -9 -18 -20 -30
-19 -21 -19 -21 1 -54 15 -25 23 -31 31 -23 9 9 8 18 -2 36 -7 14 -9 33 -5 43
6 16 11 13 42 -22 131 -147 403 -557 403 -607 0 -12 -20 -16 -97 -22 -94 -6
-99 -5 -118 17 -51 60 -140 97 -250 106 l-79 6 47 45 c27 24 58 51 71 60 13 8
46 36 75 61 49 43 51 46 34 61 -17 15 -21 14 -63 -23 -40 -35 -70 -49 -70 -33
0 3 21 30 47 60 46 54 46 55 27 74 -19 19 -21 18 -134 -76 -146 -121 -137
-111 -118 -130 17 -17 10 -21 86 43 26 22 52 30 52 17 0 -3 -18 -29 -41 -57
-38 -49 -41 -59 -24 -99 11 -27 -30 -23 -68 6 -90 69 -206 86 -282 43 -42 -24
-115 -118 -115 -149 0 -11 10 -20 28 -24 15 -3 32 -7 39 -9 7 -2 29 -38 49
-80 45 -92 107 -159 160 -174 66 -18 157 -14 181 8 20 19 22 19 37 2 9 -10 16
-22 16 -27 0 -5 23 -33 50 -63 49 -53 58 -77 20 -53 -10 6 -88 23 -172 37 -84
14 -196 35 -248 45 -52 11 -133 24 -180 30 -47 6 -103 15 -125 20 -53 12 -228
44 -390 70 -71 12 -148 28 -170 36 -22 7 -74 18 -115 24 -41 6 -111 17 -155
25 -125 24 -244 44 -315 55 -36 5 -88 14 -115 20 -65 15 -372 69 -455 81 -36
5 -88 14 -117 20 -58 13 -59 20 -7 76 14 15 35 45 45 66 24 46 34 47 48 4 6
-18 28 -50 49 -70 31 -30 50 -39 98 -47 139 -23 195 -9 250 63 36 47 88 102
135 141 12 10 19 29 19 51 0 74 -157 195 -254 195 -52 0 -158 -43 -207 -85
-49 -40 -56 -34 -63 58 -12 135 -19 152 -82 194 l-55 37 23 18 c13 10 28 18
34 18 6 0 18 7 25 17 13 15 10 16 -34 10 -26 -4 -60 -13 -76 -21 -20 -11 -44
-14 -79 -9 -44 5 -59 1 -126 -32 l-76 -37 -34 30 c-19 17 -49 33 -68 37 -18 3
-74 15 -125 27 l-92 21 -54 -27 -54 -26 -46 20 c-131 58 -255 39 -351 -54 -41
-40 -42 -44 -21 -60 10 -7 25 -58 40 -126 13 -63 30 -134 39 -156 16 -45 59
-118 76 -129 23 -14 7 -22 -27 -13 -21 5 -63 14 -93 19 -59 10 -66 11 -180 29
-41 7 -83 16 -93 21 -10 6 -98 23 -195 40 -97 16 -209 36 -249 44 -39 8 -102
20 -140 26 -37 6 -90 15 -118 20 -27 4 -77 13 -110 18 -33 5 -112 19 -175 31
-63 12 -158 28 -210 36 -52 8 -108 19 -125 25 -36 12 -161 37 -300 58 -142 22
-372 63 -400 71 -16 5 -66 14 -110 19 -75 9 -81 8 -102 -11 -13 -12 -23 -16
-23 -10 0 20 -61 102 -75 102 -22 0 -40 43 -79 195 -55 211 -47 199 -122 191
-62 -6 -98 -17 -254 -76 -115 -43 -222 -72 -232 -62 -13 13 17 75 106 220 126
208 143 234 275 412 254 343 650 759 910 955 14 11 33 26 41 34 34 33 264 200
395 286 261 172 554 330 815 440 74 31 144 60 155 65 95 44 450 156 665 210
268 67 669 131 895 143 149 8 634 6 751 -3z m-1121 -21 c-157 -24 -165 -24
-165 1 0 19 6 20 143 19 l142 -1 -120 -19z m1675 -4 c0 -29 3 -29 -114 -10
-50 8 -118 18 -151 23 -51 8 -36 10 103 11 l162 1 0 -25z m-2045 -60 c-5 -2
-44 -11 -85 -20 -41 -9 -83 -19 -92 -21 -14 -4 -18 1 -18 20 l0 26 103 -1 c56
0 98 -2 92 -4z m2365 -15 c0 -24 4 -24 -90 0 l-75 19 83 0 c76 1 82 -1 82 -19z
m-2700 -67 c-99 -33 -100 -33 -100 -12 0 17 7 19 58 18 31 0 50 -3 42 -6z
m3020 -18 c0 -14 -1 -25 -2 -25 -2 1 -39 12 -83 25 l-80 24 83 0 c81 1 82 1
82 -24z m-3300 -70 c-47 -18 -60 -18 -60 0 0 11 12 15 48 14 l47 -1 -35 -13z
m3540 -10 c0 -30 0 -30 -80 0 l-65 24 73 0 c70 1 72 0 72 -24z m-3753 -66 c-9
-5 -33 -17 -52 -25 -35 -14 -35 -14 -35 11 0 24 3 25 53 25 40 -1 48 -3 34
-11z m3913 -4 c0 -18 -4 -18 -50 0 l-35 13 43 1 c31 1 42 -3 42 -14z m-4090
-72 c-8 -3 -27 -12 -42 -20 -26 -13 -28 -12 -28 7 0 17 6 20 43 19 23 0 35 -3
27 -6z m4330 -24 l0 -28 -57 26 c-32 14 -60 28 -62 30 -3 2 23 3 57 2 61 -2
62 -2 62 -30z m-4520 -64 c-32 -18 -40 -18 -40 0 0 10 10 15 33 15 l32 -1 -25
-14z m4680 -10 c0 -31 -2 -31 -65 0 l-50 25 58 0 c54 0 57 -1 57 -25z m-4840
-70 c-32 -18 -40 -18 -40 0 0 10 10 15 33 15 l32 -1 -25 -14z m5000 -15 c0
-34 9 -35 -85 14 l-30 16 58 0 c57 0 57 0 57 -30z m-5131 -53 c-2 -2 -19 -14
-36 -26 l-33 -22 0 25 c0 23 4 26 37 26 20 0 34 -1 32 -3z m5225 -9 c-7 -11
24 -10 47 2 15 9 19 7 19 -7 0 -21 -20 -56 -20 -35 0 7 -5 10 -10 7 -6 -4 -18
-1 -27 7 -9 7 -28 18 -42 25 l-26 12 32 -2 c17 0 29 -5 27 -9z m-3421 -5 c-7
-2 -19 -2 -25 0 -7 3 -2 5 12 5 14 0 19 -2 13 -5z m-128 -28 c-22 -8 -59 -15
-82 -15 -23 0 -45 -4 -48 -10 -3 -5 -14 -10 -23 -10 -14 1 -14 3 3 13 25 15
108 34 155 35 l35 1 -40 -14z m-1806 -39 c-2 -1 -25 -15 -51 -30 l-48 -28 0
31 c0 31 1 31 52 31 28 0 49 -2 47 -4z m5501 -16 c0 -17 -3 -19 -17 -11 -47
27 -49 31 -15 31 26 0 32 -4 32 -20z m-5631 -64 c-2 -2 -14 -9 -26 -15 -19
-10 -23 -9 -23 4 0 10 9 15 27 15 14 0 24 -2 22 -4z m5791 -27 l0 -31 -27 17
c-72 47 -72 45 -20 45 46 0 47 -1 47 -31z m-4440 -13 c0 -9 -40 -13 -46 -5 -3
5 6 9 20 9 14 0 26 -2 26 -4z m-80 -30 c0 -9 -40 -13 -46 -5 -3 5 6 9 20 9 14
0 26 -2 26 -4z m-1405 -19 c-11 -8 -32 -22 -47 -32 l-28 -17 0 31 c0 30 1 31
47 31 43 0 46 -1 28 -13z m1328 -7 c-12 -10 -75 -31 -81 -26 -6 7 72 45 81 39
5 -3 5 -9 0 -13z m1372 -40 c4 -27 4 -53 1 -59 -4 -5 -32 -13 -64 -16 -96 -11
-95 -10 -88 -63 4 -26 9 -67 13 -91 l6 -43 68 6 68 7 6 -34 c4 -19 5 -47 3
-63 -3 -27 -6 -30 -65 -38 -74 -11 -71 4 -48 -206 8 -74 10 -139 6 -143 -10
-10 -139 -27 -156 -21 -7 3 -15 28 -18 57 -3 29 -22 200 -42 381 -24 211 -33
332 -27 338 10 10 299 47 319 40 6 -2 14 -25 18 -52z m455 0 l0 -59 -82 -3
-83 -3 -3 -92 -3 -92 63 -3 63 -3 0 -60 0 -60 -62 -3 -63 -3 0 -109 0 -110 78
0 c42 0 83 -4 90 -9 9 -5 12 -25 10 -62 l-3 -54 -175 0 -175 0 -3 393 -2 392
175 0 175 0 0 -60z m2850 38 c0 -21 0 -21 -22 -2 -13 10 -25 20 -27 21 -2 2 8
3 22 3 21 0 27 -5 27 -22z m-2548 -3 c133 -18 211 -51 246 -104 18 -27 22 -48
22 -105 0 -103 -14 -144 -68 -194 l-46 -43 28 -178 c16 -99 26 -183 23 -188
-6 -9 -135 0 -163 11 -13 5 -26 78 -45 249 -10 93 -14 107 -30 107 -22 0 -23
-2 -45 -185 -9 -77 -20 -143 -23 -148 -9 -9 -152 10 -165 23 -8 8 -1 89 24
270 5 36 16 128 25 205 8 77 20 175 26 218 l11 77 34 0 c18 0 84 -7 146 -15z
m-3562 -59 c0 -2 -11 -11 -25 -20 -24 -16 -25 -16 -25 4 0 15 7 20 25 20 14 0
25 -2 25 -4z m6270 -32 c0 -39 1 -39 -64 8 l-39 28 51 0 52 0 0 -36z m-2121
-14 c195 -56 260 -104 269 -200 9 -93 -50 -219 -114 -246 l-34 -14 0 -190 c0
-104 -4 -191 -8 -194 -8 -4 -147 30 -165 41 -4 3 -7 85 -5 182 3 167 2 176
-16 176 -16 0 -25 -25 -60 -150 -22 -82 -44 -155 -48 -162 -6 -8 -27 -6 -79 7
-40 10 -76 23 -81 28 -10 10 -2 47 52 242 16 58 52 191 80 295 28 105 53 196
55 203 7 18 38 15 154 -18z m-1994 -350 c56 -190 105 -357 108 -372 6 -23 3
-28 -33 -42 -66 -26 -75 -22 -141 62 -117 149 -171 214 -174 210 -2 -2 16 -73
41 -158 25 -85 43 -161 42 -169 -3 -14 -86 -49 -120 -50 -18 -1 -24 16 -85
219 -14 47 -31 105 -38 130 -7 25 -36 123 -64 219 -29 96 -48 178 -44 182 12
12 96 36 110 32 6 -2 60 -63 119 -135 60 -71 110 -125 112 -120 2 6 -16 74
-38 152 -24 81 -38 146 -33 151 15 15 87 38 112 36 22 -2 30 -23 126 -347z
m-2265 316 c0 -3 -4 -8 -10 -11 -5 -3 -10 -1 -10 4 0 6 5 11 10 11 6 0 10 -2
10 -4z m6460 -21 c0 -14 -1 -25 -3 -25 -2 0 -18 11 -37 25 l-34 25 37 0 c33 0
37 -3 37 -25z m-6560 -58 c0 -2 -18 -18 -40 -36 l-40 -32 0 36 c0 34 1 35 40
35 22 0 40 -1 40 -3z m6640 -12 c0 -19 -9 -19 -34 0 -19 14 -19 15 7 15 17 0
27 -5 27 -15z m-6760 -90 c-13 -14 -27 -25 -32 -25 -4 0 -8 11 -8 25 0 21 5
25 32 25 l31 0 -23 -25z m5157 -9 c160 -80 172 -173 59 -434 -104 -240 -130
-282 -198 -318 -65 -34 -199 -4 -275 61 -55 47 -67 80 -60 168 4 62 16 98 85
257 80 185 117 245 176 282 44 27 142 20 213 -16z m1683 24 c0 -5 -7 -7 -15
-4 -8 4 -15 8 -15 10 0 2 7 4 15 4 8 0 15 -4 15 -10z m-5030 -45 c64 -33 100
-91 212 -344 54 -122 61 -143 62 -207 1 -63 -2 -75 -29 -113 -51 -75 -185
-133 -270 -117 -59 11 -119 75 -169 180 -112 233 -156 344 -156 394 0 72 41
133 119 180 85 50 167 59 231 27z m-1880 -28 c0 -2 -11 -14 -25 -27 l-25 -23
0 26 c0 22 5 27 25 27 14 0 25 -1 25 -3z m7070 -37 l0 -40 40 0 40 0 0 -40 0
-40 40 0 40 0 0 -40 0 -40 40 0 40 0 0 -40 0 -40 40 0 40 0 0 -40 c0 -40 0
-40 39 -40 l39 0 4 -50 3 -50 -90 97 c-83 89 -222 227 -355 351 l-55 52 48 0
47 0 0 -40z m-7160 -43 c0 -2 -9 -12 -20 -22 -19 -18 -20 -17 -20 3 0 15 6 22
20 22 11 0 20 -2 20 -3z m5688 -62 c28 -20 52 -40 52 -46 0 -5 -36 -100 -81
-210 -44 -110 -78 -203 -75 -207 8 -7 -6 -22 156 176 73 89 137 162 142 162
15 0 128 -72 128 -81 0 -4 -82 -101 -182 -216 -101 -115 -214 -246 -253 -291
-38 -45 -77 -82 -86 -82 -14 0 -123 61 -143 80 -11 11 3 60 49 180 19 47 70
182 114 300 44 118 84 227 90 243 14 35 26 34 89 -8z m-5769 -18 c-2 -1 -12
-9 -21 -16 -15 -12 -18 -11 -18 3 0 10 8 16 22 16 12 0 19 -1 17 -3z m1554
-59 c27 -48 277 -474 327 -558 23 -40 29 -59 22 -70 -13 -22 -121 -83 -136
-77 -7 3 -41 54 -76 113 -35 60 -89 152 -120 204 -162 274 -200 339 -200 344
0 11 123 86 141 86 10 0 27 -18 42 -42z m-1634 -21 c-2 -1 -12 -9 -21 -16 -15
-12 -18 -11 -18 3 0 10 8 16 22 16 12 0 19 -1 17 -3z m-79 -80 c0 -2 -9 -12
-20 -22 -19 -18 -20 -17 -20 3 0 15 6 22 20 22 11 0 20 -2 20 -3z m1471 -107
c184 -245 389 -529 389 -538 0 -10 -78 -72 -91 -72 -3 0 -64 36 -135 81 -148
93 -184 113 -184 101 0 -5 43 -66 95 -137 52 -71 95 -132 95 -137 0 -13 -102
-89 -114 -85 -12 4 -235 297 -413 546 -51 70 -53 75 -36 93 9 10 31 28 49 39
28 17 37 18 56 8 33 -17 186 -107 231 -136 21 -13 43 -23 48 -21 5 2 -31 58
-81 125 -49 67 -90 129 -90 136 0 14 99 89 111 85 4 -2 35 -41 70 -88z m-1563
5 c-12 -14 -23 -25 -25 -25 -2 0 -3 11 -3 25 0 20 5 25 25 25 l25 0 -22 -25z
m6505 -41 c31 -25 57 -52 57 -60 0 -8 -41 -70 -90 -137 -50 -67 -147 -200
-217 -294 -69 -95 -132 -178 -139 -184 -11 -9 -28 -1 -79 37 -35 27 -65 53
-65 57 0 11 9 24 244 342 184 249 212 285 226 285 3 0 31 -21 63 -46z m-6579
-39 c-9 -14 -20 -25 -25 -25 -5 0 -9 11 -9 25 0 20 5 25 25 25 25 0 25 -1 9
-25z m8011 15 c-3 -5 -11 -10 -16 -10 -6 0 -7 5 -4 10 3 6 11 10 16 10 6 0 7
-4 4 -10z m28 -25 c4 -8 2 -17 -3 -20 -6 -4 -10 3 -10 14 0 25 6 27 13 6z
m-8113 -75 c-31 -44 -40 -45 -40 -6 0 33 2 36 31 36 l30 0 -21 -30z m8120 15
c0 -8 -2 -15 -4 -15 -2 0 -6 7 -10 15 -3 8 -1 15 4 15 6 0 10 -7 10 -15z
m-8179 -87 c-11 -13 -29 -34 -40 -47 l-21 -24 0 46 0 47 40 0 40 0 -19 -22z
m8259 2 c0 -11 -2 -20 -3 -20 -2 0 -12 9 -22 20 -18 19 -17 20 3 20 15 0 22
-6 22 -20z m-1204 -92 c35 -33 64 -67 64 -74 0 -8 -64 -116 -141 -241 -78
-126 -169 -272 -202 -325 -36 -59 -67 -98 -76 -98 -9 0 -38 22 -65 49 l-48 49
42 71 43 72 -28 29 c-16 17 -36 30 -46 30 -9 0 -39 -18 -67 -40 -27 -22 -56
-40 -63 -40 -8 0 -39 23 -68 50 -54 50 -55 51 -35 70 31 31 607 460 617 460 5
0 38 -28 73 -62z m-5593 -165 c266 -272 289 -315 231 -431 -27 -55 -93 -120
-148 -146 -43 -20 -106 -20 -154 -1 -44 18 -472 448 -472 474 0 20 94 111 114
111 8 0 103 -92 213 -203 109 -112 211 -212 226 -222 39 -25 77 -8 77 35 0 26
-18 50 -107 143 -60 62 -110 114 -113 117 -3 3 -52 54 -109 113 l-105 108 60
60 c32 33 63 58 69 57 5 -2 104 -99 218 -215z m6877 160 l0 -37 -25 34 c-14
19 -25 35 -25 37 0 2 11 3 25 3 22 0 25 -4 25 -37z m-8460 -63 c-6 -11 -13
-20 -15 -20 -3 0 -5 9 -5 20 0 11 7 20 15 20 13 0 14 -4 5 -20z m8540 -25 c0
-25 -1 -45 -3 -45 -2 0 -18 20 -36 45 l-32 45 35 0 c36 0 36 0 36 -45z m-8590
-38 c0 -2 -11 -18 -25 -37 l-25 -34 0 37 c0 33 3 37 25 37 14 0 25 -1 25 -3z
m-68 -103 c-7 -12 -11 -13 -17 -4 -4 7 -2 16 6 21 18 11 23 4 11 -17z m8738
-1 c0 -26 -1 -26 -15 -7 -19 25 -19 34 0 34 10 0 15 -10 15 -27z m-1091 -134
c45 -56 93 -124 107 -152 49 -96 30 -178 -58 -247 -72 -58 -112 -73 -168 -66
-45 6 -45 6 -77 -41 -75 -114 -156 -229 -172 -246 -17 -18 -20 -16 -70 43 -28
34 -51 69 -51 77 0 8 45 76 99 150 59 78 98 140 94 149 -10 27 -8 29 -189
-123 -99 -82 -93 -82 -153 -9 -28 35 -51 67 -50 72 1 12 581 493 596 494 6 0
48 -45 92 -101z m-7695 66 c-4 -8 -8 -15 -10 -15 -2 0 -4 7 -4 15 0 8 4 15 10
15 5 0 7 -7 4 -15z m8866 -32 c0 -52 2 -52 -45 20 l-17 27 31 0 c30 0 31 -1
31 -47z m-8931 -68 c-12 -19 -23 -35 -25 -35 -2 0 -4 16 -4 35 0 31 3 35 25
35 l24 0 -20 -35z m9011 -70 c0 -14 -2 -25 -4 -25 -2 0 -11 11 -20 25 -16 24
-16 25 4 25 15 0 20 -7 20 -25z m-9100 -75 c-6 -11 -13 -20 -15 -20 -3 0 -5 9
-5 20 0 11 7 20 15 20 13 0 14 -4 5 -20z m9180 -37 c0 -31 -2 -54 -4 -52 -2 2
-18 28 -35 57 l-30 52 34 0 35 0 0 -57z m80 -155 c0 -28 -1 -49 -3 -47 -2 2
-15 25 -30 52 l-26 47 30 0 c28 0 29 -1 29 -52z m-1073 -85 c41 -64 42 -69 25
-84 -37 -36 -624 -419 -633 -414 -21 14 -90 127 -85 141 7 17 615 422 636 423
8 0 34 -30 57 -66z m1153 -75 l-1 -53 -24 45 c-30 57 -30 60 0 60 24 0 25 -3
25 -52z m-5850 -90 c67 -15 92 -46 125 -151 33 -102 37 -248 6 -198 -5 7 -21
11 -39 9 l-31 -3 30 -64 c40 -86 37 -95 -32 -99 -42 -2 -61 2 -78 15 -27 22
-46 105 -31 133 6 11 11 43 13 73 2 45 -2 58 -25 86 -15 17 -33 50 -39 72 -14
46 -39 63 -80 55 -57 -11 -27 39 41 68 43 19 73 19 140 4z m395 -29 c84 -21
146 -116 149 -228 l1 -65 -37 -6 c-43 -8 -68 -26 -68 -49 0 -34 -23 -52 -57
-45 -36 7 -52 36 -33 59 17 21 2 56 -40 93 -28 23 -46 52 -65 105 -15 39 -32
82 -38 94 -19 42 -4 53 73 53 39 0 91 -5 115 -11z m5534 -46 l-1 -58 -23 50
c-30 63 -30 65 0 65 24 0 25 -3 24 -57z m-5084 -18 c28 -14 59 -33 69 -44 32
-35 49 -242 25 -310 -11 -31 -20 -35 -70 -31 -32 2 -59 -23 -59 -56 0 -29 -1
-29 -50 -4 -22 11 -46 20 -54 20 -21 0 -28 31 -11 50 12 14 13 23 4 51 -7 19
-16 40 -22 47 -11 14 -23 229 -14 264 14 53 87 58 182 13z m4057 -87 c13 -24
32 -63 43 -87 l19 -44 -34 -29 c-114 -96 -574 -453 -584 -453 -11 0 -75 111
-76 132 0 7 27 31 60 55 33 23 60 46 60 50 0 20 -42 88 -54 88 -7 0 -39 -9
-72 -20 -32 -11 -64 -18 -71 -16 -15 6 -79 133 -71 141 3 3 144 48 314 100
170 52 329 101 354 109 74 23 86 21 112 -26z m1108 -75 l-1 -78 -29 73 c-17
40 -30 75 -30 78 0 2 14 4 30 4 l30 0 0 -77z m-8767 33 c126 -34 153 -63 168
-175 15 -119 29 -171 47 -171 12 0 13 -3 5 -8 -10 -6 -10 -29 -1 -102 12 -104
19 -120 53 -120 12 0 36 -5 52 -11 28 -9 31 -15 37 -70 8 -68 -2 -89 -41 -89
-13 0 -36 6 -51 14 -25 12 -66 20 -241 46 -35 5 -66 12 -69 14 -12 13 -39 110
-35 126 4 17 8 17 39 4 18 -8 47 -14 64 -14 35 0 36 5 20 140 -6 47 -15 128
-20 180 -10 106 -19 120 -81 120 -43 0 -52 10 -68 73 -19 77 -12 79 122 43z
m4118 -77 c53 -26 99 -83 99 -122 0 -36 -44 -86 -109 -122 -20 -11 -36 -27
-36 -35 0 -30 -40 -21 -74 16 -42 44 -104 84 -131 84 -24 0 -27 -28 -6 -68 7
-15 16 -41 19 -59 9 -45 -16 -34 -48 21 -47 81 -42 177 13 228 27 26 101 68
137 79 30 9 96 -2 136 -22z m-3472 -34 c146 -25 175 -55 197 -199 8 -54 19
-107 25 -117 6 -11 12 -52 15 -92 2 -40 10 -102 16 -138 9 -56 8 -71 -6 -101
-20 -42 -64 -65 -93 -50 -10 6 -57 16 -103 22 -149 21 -193 55 -207 157 -3 27
-10 54 -16 61 -7 9 -6 17 4 27 12 12 26 13 73 5 33 -5 64 -14 70 -20 5 -5 12
-29 15 -52 5 -38 9 -43 40 -49 58 -12 64 -5 56 70 -4 36 -9 69 -12 74 -2 4
-30 7 -61 7 -141 1 -212 103 -212 309 0 106 25 117 199 86z m-1184 -5 c3 -5
19 -10 35 -10 16 0 36 -7 45 -16 13 -13 30 -15 85 -11 78 6 80 4 80 -69 0 -59
-16 -77 -48 -56 -19 12 -28 13 -43 4 -11 -7 -34 -10 -57 -6 -30 5 -41 2 -56
-15 -17 -18 -20 -40 -22 -155 -1 -93 -6 -141 -16 -161 l-15 -27 -11 58 c-21
111 -23 129 -28 239 -2 61 -6 129 -9 153 -3 24 0 52 5 63 11 20 45 26 55 9z
m1713 -86 c109 -19 154 -41 175 -87 8 -18 22 -82 31 -143 l17 -111 -28 -32
c-15 -17 -33 -31 -39 -31 -6 0 -17 -7 -24 -15 -12 -14 -15 -14 -31 1 -9 8 -36
18 -58 21 -52 7 -61 -11 -35 -70 10 -23 19 -44 20 -45 1 -2 44 -10 94 -18 51
-7 100 -16 111 -19 23 -8 31 -36 27 -101 -3 -46 -5 -49 -31 -52 -16 -2 -43 3
-60 12 -18 8 -81 22 -142 31 -129 18 -142 22 -148 38 -13 36 -29 256 -21 297
9 40 14 46 47 57 28 10 50 10 84 2 67 -14 73 -9 73 59 0 69 -10 81 -66 85
l-39 2 2 -47 c3 -46 2 -48 -25 -48 -46 0 -101 20 -106 38 -4 15 -9 116 -7 149
2 21 32 43 58 43 14 0 68 -7 121 -16z m7671 -56 c0 -35 -3 -56 -6 -48 -3 8
-14 36 -23 63 l-18 47 24 0 c23 0 24 -3 23 -62z m-5731 23 c63 -54 87 -133 43
-145 -49 -13 -70 -14 -105 -6 -22 5 -50 20 -64 33 l-24 25 17 46 c31 80 76 96
133 47z m-4288 -51 c0 -5 -5 -10 -11 -10 -5 0 -8 -4 -5 -9 3 -4 -5 -39 -18
-77 l-25 -69 0 88 -1 87 30 0 c17 0 30 -4 30 -10z m2833 0 c23 -5 63 -12 90
-15 36 -5 56 -15 86 -43 35 -33 40 -45 50 -112 6 -41 15 -97 20 -125 6 -37 5
-52 -5 -63 -8 -7 -14 -17 -14 -22 0 -5 -18 -15 -40 -21 -31 -9 -49 -9 -85 1
-40 11 -48 11 -62 -3 -15 -14 -15 -18 0 -40 8 -13 17 -34 19 -48 2 -17 9 -23
23 -22 11 1 47 -4 80 -12 33 -7 63 -11 68 -8 4 2 19 -2 32 -11 18 -12 25 -28
30 -71 11 -82 -12 -102 -79 -70 -18 9 -87 24 -155 34 -67 9 -126 22 -131 27
-14 14 -34 235 -26 288 10 66 34 79 124 70 l70 -6 5 28 c4 16 3 47 -1 68 -6
34 -12 41 -41 48 -48 13 -63 4 -61 -34 3 -53 1 -58 -21 -58 -39 0 -98 23 -104
39 -2 9 -6 48 -7 88 -3 62 0 74 17 87 23 18 59 20 118 6z m1207 -61 c0 -12
-21 -11 -40 1 -13 9 -13 11 0 19 15 10 40 -3 40 -20z m557 9 c53 -23 81 -48
88 -80 6 -24 3 -35 -11 -45 -42 -30 -165 -2 -172 41 -2 10 2 30 9 45 28 56 37
60 86 39z m2523 -103 c44 -23 58 -48 79 -145 25 -114 26 -153 5 -175 -14 -14
-19 -14 -31 -3 -7 8 -15 24 -17 35 -6 28 -36 120 -52 161 -12 27 -19 32 -47
32 -25 0 -37 -6 -46 -24 -14 -25 -11 -106 4 -140 7 -16 6 -17 -14 -6 -14 7
-39 46 -62 98 -22 48 -44 89 -50 90 -16 6 -10 40 14 67 38 45 141 49 217 10z
m2979 -67 c-1 -55 -3 -66 -9 -43 -4 17 -14 49 -23 73 -15 42 -15 42 9 42 23 0
24 -2 23 -72z m-5927 -9 c96 -21 133 -67 140 -175 l3 -49 -48 1 c-57 0 -69 11
-76 66 -5 37 -10 43 -39 52 -47 13 -54 1 -45 -75 l8 -64 70 -3 c60 -2 75 -7
107 -32 20 -17 42 -30 47 -30 6 0 11 -5 11 -11 0 -5 -4 -7 -10 -4 -5 3 -2 -11
7 -32 12 -27 17 -69 17 -145 1 -96 -1 -109 -19 -123 -21 -16 -22 -16 -165 10
-96 17 -134 44 -149 105 -12 45 -42 300 -48 411 -5 82 -4 87 19 103 24 18 67
17 170 -5z m3325 -25 c28 -14 67 -42 87 -64 l36 -40 0 -110 c0 -136 -15 -183
-57 -178 -23 2 -28 8 -29 33 -1 29 -30 192 -40 226 -7 24 -49 29 -81 10 -32
-19 -93 -26 -93 -11 0 5 -9 19 -20 30 -11 11 -20 29 -20 39 0 11 -4 23 -10 26
-19 12 -11 55 13 64 39 15 158 1 214 -25z m-7597 -56 c-1 -2 -9 -32 -20 -68
l-19 -65 0 68 c-1 61 1 67 19 67 11 0 20 -1 20 -2z m4915 -30 c45 -11 73 -33
85 -64 9 -23 35 -207 46 -320 7 -82 1 -91 -52 -74 -48 16 -59 46 -75 208 -14
144 -14 143 -77 155 -23 5 -34 3 -38 -7 -3 -8 2 -62 10 -121 18 -121 20 -171
7 -180 -11 -6 -84 29 -99 48 -13 15 -29 107 -37 207 -3 41 -8 97 -11 124 l-6
48 103 -7 c57 -3 122 -11 144 -17z m3035 -6 c59 -20 108 -57 116 -87 3 -13 -3
-49 -15 -82 -11 -32 -27 -87 -35 -123 -11 -49 -23 -72 -46 -92 -37 -34 -60
-37 -53 -7 3 11 0 37 -7 58 -9 27 -9 47 -1 76 21 81 -24 157 -79 137 -23 -9
-27 -5 -47 37 -26 56 -27 65 -8 81 37 30 92 31 175 2z m-4375 -23 c33 -5 89
-14 124 -19 35 -5 70 -15 78 -23 17 -17 26 -93 13 -116 -10 -21 -61 -17 -97 6
-12 8 -57 21 -100 28 -52 9 -81 19 -88 31 -5 9 -20 32 -32 50 -20 31 -21 34
-5 43 22 13 34 13 107 0z m1665 -25 c141 -24 143 -25 152 -65 9 -43 1 -69 -20
-69 -9 1 -42 7 -73 14 -73 18 -83 11 -75 -47 8 -55 17 -63 81 -72 81 -12 115
-36 115 -82 0 -44 -25 -73 -59 -68 -16 2 -41 11 -55 20 -49 32 -73 -4 -41 -64
12 -25 24 -30 78 -40 35 -6 71 -11 79 -11 24 0 35 -20 42 -75 12 -104 -32 -99
-148 17 -45 44 -100 89 -123 100 -23 10 -45 24 -50 30 -4 7 -17 102 -29 213
-23 205 -21 231 15 221 9 -3 59 -12 111 -22z m5039 -96 l-1 -103 -24 90 c-29
112 -29 115 1 115 l25 0 -1 -102z m-1998 67 c14 -8 34 -30 43 -49 22 -47 8
-97 -46 -162 -22 -26 -44 -56 -49 -66 -7 -13 -21 -18 -54 -18 -40 0 -61 13
-35 22 5 2 11 34 13 71 2 42 8 72 16 76 23 15 8 45 -26 52 -33 6 -63 25 -63
38 0 4 6 15 13 25 26 35 129 41 188 11z m-4307 -60 c3 -8 1 -15 -4 -15 -6 0
-10 7 -10 15 0 8 2 15 4 15 2 0 6 -7 10 -15z m1790 0 c146 -24 156 -37 181
-250 9 -77 20 -174 26 -216 11 -84 3 -121 -30 -138 -13 -8 -28 -8 -46 -1 -14
5 -56 15 -93 20 -76 13 -105 28 -126 68 -16 32 -45 252 -53 406 -5 88 -3 101
13 113 22 16 19 16 128 -2z m-4038 -33 c5 -5 68 -19 141 -32 107 -19 141 -21
183 -13 51 10 103 1 170 -32 14 -7 63 -18 110 -25 47 -6 123 -18 170 -25 46
-7 88 -11 93 -8 5 3 37 6 73 8 55 2 66 -1 85 -21 13 -14 34 -24 50 -24 15 0
63 -7 106 -15 43 -9 141 -18 218 -20 77 -3 156 -9 175 -15 19 -6 85 -17 145
-25 61 -8 133 -20 160 -25 28 -6 84 -13 125 -16 41 -3 82 -10 90 -14 9 -5 49
-11 90 -15 41 -3 104 -15 140 -25 86 -25 194 -41 309 -46 145 -6 143 -5 158
-50 8 -21 12 -51 9 -65 -6 -34 27 -81 83 -117 23 -15 41 -30 41 -34 0 -12 -34
-10 -82 6 -24 7 -83 19 -133 25 -49 7 -121 16 -160 22 -91 12 -212 28 -300 40
-38 5 -92 13 -120 19 -46 9 -131 19 -410 50 -55 6 -176 22 -270 35 -93 14
-228 32 -299 40 -71 8 -161 21 -200 29 -39 8 -134 22 -211 31 -77 8 -167 20
-200 25 -33 5 -98 14 -145 20 -140 17 -279 36 -332 46 -16 3 -28 12 -28 19 0
7 -16 27 -36 45 -26 23 -33 34 -24 40 14 9 4 71 -14 82 -18 12 -164 9 -271 -7
-133 -19 -209 -19 -225 0 -10 13 -9 15 11 16 13 0 31 2 39 3 13 3 82 12 165
22 17 2 73 8 125 15 52 6 113 17 135 24 53 17 50 16 61 7z m-617 -21 c29 -19
-4 -29 -139 -41 -102 -9 -144 -10 -152 -2 -14 14 10 19 134 27 54 4 100 11
104 16 7 11 35 11 53 0z m5093 -22 c77 -17 104 -50 111 -136 3 -37 1 -72 -3
-77 -6 -5 -25 -3 -47 5 -34 13 -39 19 -43 54 -5 36 -9 41 -44 53 -60 19 -69 5
-51 -80 7 -37 18 -76 24 -87 6 -10 11 -56 12 -100 l1 -81 36 -10 c41 -11 57 2
41 31 -13 26 -11 36 11 57 19 17 25 18 57 7 46 -16 53 -31 60 -118 5 -64 3
-74 -15 -91 -15 -13 -30 -17 -54 -13 -18 3 -61 11 -96 16 -118 20 -144 48
-157 171 -3 36 -13 114 -21 173 -20 150 -19 223 4 237 18 11 89 7 174 -11z
m-6279 -56 c-9 -38 -21 -95 -28 -128 l-13 -60 -1 128 -1 127 29 0 29 0 -15
-67z m6571 6 c66 -11 124 -26 128 -32 4 -7 8 -29 8 -49 0 -38 -1 -38 -39 -38
-22 0 -42 -4 -45 -9 -3 -5 3 -42 13 -82 20 -76 41 -245 41 -324 0 -34 -4 -45
-19 -50 -21 -6 -62 7 -78 26 -6 8 -21 104 -33 214 -12 110 -24 211 -28 225 -6
18 -18 27 -51 35 -46 11 -59 27 -60 78 -1 34 2 34 163 6z m1276 -22 c0 -10 -4
-15 -10 -12 -5 3 -10 18 -10 33 0 21 2 24 10 12 5 -8 10 -23 10 -33z m-1022
-31 c7 -11 19 -89 46 -314 8 -67 18 -127 21 -132 7 -12 72 -14 78 -2 5 7 -12
179 -33 336 -5 43 -7 82 -4 87 8 13 58 11 76 -3 9 -8 18 -36 21 -68 3 -30 15
-125 26 -210 25 -188 26 -229 5 -259 -13 -17 -23 -22 -43 -17 -185 38 -203 46
-219 98 -6 18 -18 98 -27 178 -8 80 -20 182 -26 227 -6 45 -8 86 -6 90 8 12
75 3 85 -11z m972 -46 c0 -5 -7 -7 -15 -4 -8 4 -15 8 -15 10 0 2 7 4 15 4 8 0
15 -4 15 -10z m-513 -23 c62 -16 88 -53 99 -144 4 -37 7 -84 5 -103 -1 -19 7
-55 18 -80 42 -92 17 -230 -41 -230 -45 0 -192 30 -198 40 -6 10 -42 309 -57
469 l-6 74 67 -7 c36 -4 87 -13 113 -19z m3152 -134 l-1 -158 -19 105 c-10 58
-20 122 -20 143 -1 20 -5 37 -10 37 -5 0 -9 7 -9 15 0 10 10 15 30 15 l30 0
-1 -157z m-5614 108 c44 -16 101 -38 126 -49 48 -21 181 -56 259 -68 24 -3 60
-19 80 -33 19 -15 52 -40 73 -55 38 -28 52 -64 20 -51 -21 8 -22 8 -45 6 -10
0 -18 -7 -18 -13 0 -7 -11 -21 -24 -30 -23 -17 -25 -17 -40 7 -9 13 -16 29
-16 34 0 16 -86 24 -167 17 -71 -7 -78 -5 -173 34 -54 22 -108 40 -119 40 -12
0 -21 4 -21 8 0 4 -15 13 -33 20 -18 6 -40 25 -50 41 -17 29 -23 101 -10 114
14 15 82 5 158 -22z m3312 8 c6 -6 28 -17 49 -25 l39 -14 -43 6 c-23 3 -49 7
-57 8 -20 3 -28 13 -20 25 8 14 18 14 32 0z m426 -11 c4 -13 11 -102 17 -198
11 -181 30 -281 91 -478 41 -134 38 -195 -22 -420 -13 -48 -29 -40 -29 16 0
46 -13 40 -39 -18 -14 -30 -29 -50 -39 -50 -9 0 -25 -9 -37 -20 -29 -30 -92
-69 -120 -76 -14 -3 -25 -9 -25 -14 0 -4 -18 -15 -40 -25 -22 -10 -45 -24 -51
-32 -15 -17 -125 -69 -181 -83 -24 -7 -56 -19 -71 -27 -16 -8 -38 -12 -50 -9
-12 3 -48 0 -79 -6 -51 -11 -64 -9 -130 11 -40 13 -83 27 -96 32 -13 5 -48 9
-79 9 -52 0 -59 -3 -88 -34 -17 -19 -45 -38 -61 -41 -70 -15 -77 -34 -23 -59
26 -12 44 -28 50 -45 5 -14 22 -33 38 -42 18 -10 34 -31 41 -55 13 -40 33 -64
63 -81 18 -9 18 -11 -6 -36 -13 -15 -31 -27 -39 -27 -8 0 -27 -13 -43 -30 -16
-16 -24 -30 -18 -30 19 0 25 -51 8 -70 -12 -13 -14 -28 -9 -58 3 -23 3 -80 -1
-127 -6 -75 -9 -85 -26 -85 -17 0 -19 -8 -19 -70 0 -38 -4 -70 -9 -70 -6 0 -7
-28 -4 -68 5 -64 4 -70 -20 -94 -24 -24 -25 -28 -25 -184 -1 -119 -5 -173 -17
-214 -17 -55 -45 -240 -45 -292 0 -16 -4 -28 -9 -28 -5 0 -9 -15 -8 -32 0 -46
-34 -96 -135 -198 -191 -192 -532 -408 -798 -505 -41 -15 -102 -37 -135 -50
-33 -12 -76 -26 -95 -30 -52 -11 -279 -81 -321 -98 -47 -21 -62 -10 -61 44 3
121 136 435 232 551 l19 23 1 -52 c0 -28 -4 -55 -10 -58 -18 -11 -11 -35 11
-35 11 0 29 -5 40 -10 39 -22 47 5 53 178 5 161 12 196 51 242 7 8 27 49 44
90 20 48 49 94 79 126 27 29 59 66 72 83 14 18 32 41 41 52 9 11 22 33 29 49
7 17 15 30 19 30 13 0 72 133 171 385 17 44 38 94 45 110 7 17 48 111 90 210
42 99 89 209 105 245 54 121 93 252 92 310 0 33 -12 91 -30 145 -31 93 -33
115 -6 77 8 -12 22 -22 30 -22 8 0 22 -13 32 -29 l17 -28 105 4 c151 5 243 16
247 29 2 6 -13 19 -34 29 -21 10 -45 23 -53 30 -8 7 -49 18 -90 25 -42 7 -95
24 -120 38 -51 29 -173 150 -164 163 3 5 -2 9 -11 9 -9 0 -31 16 -47 35 -17
19 -35 32 -40 29 -11 -7 -11 -67 1 -79 15 -18 102 -187 98 -192 -8 -7 -136
174 -153 216 -14 35 -14 51 -5 107 12 66 57 170 83 191 27 22 106 36 209 35
102 0 109 -2 180 -38 122 -61 221 -121 279 -169 30 -25 64 -48 76 -51 12 -3
72 15 145 45 166 67 362 111 496 111 38 0 92 7 119 15 27 8 59 15 71 15 34 0
35 15 5 48 -16 16 -43 58 -62 93 -60 114 -50 267 28 412 l37 69 9 -31 c20 -68
135 -140 153 -96 8 22 -33 259 -52 294 -19 38 -10 61 25 61 21 0 29 -6 33 -22z
m-965 -27 c46 -11 92 -27 102 -36 21 -19 40 -130 40 -231 0 -36 4 -73 9 -83 6
-10 15 -57 22 -106 10 -82 10 -90 -7 -102 -40 -29 -70 -4 -79 65 -12 95 -16
112 -31 127 -9 8 -27 15 -41 15 l-25 0 7 -95 7 -95 -29 0 c-63 0 -56 -28 -113
459 -5 46 -7 87 -4 92 8 14 51 10 142 -10z m273 -61 c27 -12 66 -20 102 -20
l57 0 0 -39 c0 -22 -3 -42 -8 -44 -4 -3 -31 0 -60 5 -70 14 -82 4 -62 -55 15
-41 17 -42 70 -50 65 -11 85 -25 88 -67 5 -65 -39 -90 -94 -54 -31 21 -48 8
-39 -29 10 -39 42 -67 78 -68 78 -2 88 -10 95 -77 5 -59 -8 -68 -71 -47 -23 8
-68 17 -100 21 -31 4 -61 12 -67 19 -11 13 -21 83 -45 300 -8 77 -18 159 -21
183 -6 37 -4 42 14 42 11 0 39 -9 63 -20z m-7931 -121 c0 -5 -4 -9 -8 -9 -5 0
-9 7 -9 15 0 8 4 12 9 9 4 -3 8 -9 8 -15z m8872 -29 c36 -17 53 -58 68 -161
11 -72 10 -90 -2 -115 -13 -27 -18 -29 -66 -28 -44 2 -52 -1 -52 -17 0 -10 5
-21 10 -24 6 -3 10 -14 10 -24 0 -10 6 -18 13 -19 6 -1 32 -5 57 -8 25 -3 51
-13 58 -22 14 -18 16 -98 3 -106 -5 -3 -50 4 -100 16 -91 23 -91 23 -106 63
-20 54 -33 154 -26 207 l6 43 53 3 c62 4 70 15 53 73 -10 32 -16 39 -36 39
-22 0 -25 -5 -25 -34 0 -37 -21 -53 -54 -40 -17 7 -21 19 -31 97 -9 69 4 81
80 74 33 -2 72 -10 87 -17z m-8892 -62 c0 -18 -5 -67 -10 -108 -6 -41 -14
-113 -19 -160 -7 -75 -8 -62 -10 108 -1 186 0 192 19 192 16 0 20 -7 20 -32z
m9208 11 c35 -12 58 -59 67 -138 3 -29 12 -72 20 -95 8 -23 15 -89 16 -148 3
-120 -6 -144 -50 -134 -119 24 -144 36 -161 76 -11 29 -35 211 -45 346 -6 83
-5 93 12 103 19 12 92 7 141 -10z m-1023 1 c3 -5 1 -10 -4 -10 -6 0 -11 5 -11
10 0 6 2 10 4 10 3 0 8 -4 11 -10z m123 -17 c-10 -2 -26 -2 -35 0 -10 3 -2 5
17 5 19 0 27 -2 18 -5z m-2538 -33 c63 -21 166 -37 290 -44 47 -3 101 -11 120
-19 44 -18 93 -25 248 -36 72 -5 128 -14 137 -21 10 -8 53 -15 108 -17 51 -2
112 -10 137 -17 79 -25 163 -38 239 -38 50 1 84 -4 105 -15 33 -17 49 -20 217
-33 59 -4 117 -13 129 -20 12 -7 55 -13 94 -14 39 -1 81 -8 93 -14 12 -7 42
-12 67 -12 24 0 71 -6 103 -14 96 -22 202 -35 308 -36 157 -2 146 1 182 -60
18 -30 33 -59 33 -66 0 -26 -467 -26 -510 1 -4 3 -54 9 -111 15 -57 5 -135 14
-174 20 -84 13 -282 39 -345 46 -25 3 -90 9 -145 15 -55 6 -116 14 -135 19
-33 9 -204 32 -370 51 -82 9 -204 26 -235 33 -31 7 -146 24 -320 46 -276 36
-379 51 -410 59 l-30 7 -1 80 c0 119 -1 117 65 109 31 -4 81 -15 111 -25z
m3733 -1 c58 -15 68 -39 83 -204 7 -78 -7 -98 -67 -99 -38 -1 -44 -4 -41 -21
7 -41 31 -65 65 -65 46 0 68 -19 77 -68 11 -60 -4 -69 -78 -48 -32 9 -70 16
-85 16 -46 0 -59 35 -65 170 l-5 119 54 3 54 3 3 45 c3 32 -1 48 -13 56 -25
18 -45 6 -45 -27 0 -19 -7 -32 -21 -40 -34 -18 -51 8 -57 90 -4 67 -4 71 19
80 24 9 53 7 122 -10z m271 -44 c58 -9 92 -46 102 -113 10 -72 22 -96 38 -83
11 9 15 7 21 -6 9 -22 25 -126 31 -209 5 -59 5 -62 -27 -88 -17 -15 -37 -25
-43 -23 -6 3 -45 12 -86 22 -41 10 -80 23 -87 29 -25 22 -44 248 -23 261 6 4
29 8 51 9 49 4 53 8 52 53 -1 43 -28 70 -50 51 -8 -6 -12 -17 -9 -25 10 -24
-6 -43 -34 -43 -32 0 -35 6 -45 92 -6 51 -4 57 17 72 12 9 28 14 34 12 6 -2
32 -8 58 -11z m-4763 -85 c30 -6 65 -19 79 -30 14 -11 46 -35 72 -53 48 -33
95 -93 64 -81 -8 3 -18 15 -22 26 -5 16 -9 13 -27 -24 -12 -24 -25 -45 -30
-47 -5 -2 -18 -12 -28 -22 -22 -22 -97 -57 -142 -66 -17 -3 -35 -11 -39 -16
-3 -6 -17 -12 -30 -14 -13 -2 -61 -15 -108 -30 -115 -37 -247 -35 -292 4 -16
14 -19 12 -35 -21 -25 -54 -31 -49 -95 87 -12 27 -31 53 -42 59 -19 10 -178 4
-197 -7 -5 -4 -48 1 -96 9 -49 8 -124 17 -168 21 -109 9 -215 36 -226 57 -5
10 -19 18 -29 18 -25 0 -26 22 -2 42 77 69 440 103 615 59 42 -11 90 -27 107
-36 17 -9 59 -18 94 -22 69 -6 82 -3 236 61 78 32 94 35 186 36 56 0 126 -5
155 -10z m-2742 -71 c64 -6 126 -12 139 -15 28 -6 29 -36 1 -74 -15 -20 -20
-37 -16 -57 7 -37 -4 -55 -29 -48 -18 6 -18 6 -1 -8 10 -9 21 -33 24 -55 5
-34 2 -41 -15 -47 -12 -3 -30 -1 -41 4 -11 6 -45 11 -75 11 -31 0 -56 4 -56 9
0 11 -50 22 -118 26 -30 2 -65 11 -79 20 -15 10 -37 15 -54 13 -18 -3 -29 0
-29 8 0 15 -53 29 -58 15 -5 -14 -42 -14 -42 -1 0 6 6 19 13 31 10 17 9 22 -6
34 -30 22 -60 4 -72 -43 -6 -22 -13 -44 -18 -48 -4 -4 -7 -19 -8 -33 -1 -23
-2 -21 -11 9 -5 19 -18 44 -28 55 -27 30 -59 100 -52 112 9 12 195 1 336 -21
112 -18 110 -19 121 53 11 71 -4 67 174 50z m3038 -5 c26 -7 51 -60 35 -76
-16 -16 -65 7 -85 41 -9 16 -17 32 -17 35 0 8 38 8 67 0z m-2649 -58 c20 -20
25 -38 33 -131 7 -76 7 -111 0 -118 -16 -16 -38 11 -45 54 -3 20 -7 42 -10 50
-2 8 -7 26 -10 42 -9 40 -78 87 -128 87 -32 0 -39 3 -36 18 7 37 156 36 196
-2z m237 -16 c21 -8 31 -8 33 -1 2 6 21 11 43 11 76 0 454 -42 464 -51 6 -6
11 -42 12 -82 1 -40 7 -85 13 -101 12 -32 6 -59 -22 -98 -28 -41 -48 -36 -48
11 0 43 -8 53 -63 72 -67 24 -72 54 -14 83 36 17 21 21 -45 10 -37 -6 -38 -8
-38 -48 0 -22 -7 -66 -15 -96 -8 -30 -15 -67 -15 -82 0 -35 -20 -78 -35 -78
-22 0 -38 29 -36 68 8 147 9 147 -72 234 -15 16 -26 37 -25 46 2 13 -6 18 -31
20 l-33 3 7 -113 c7 -116 -3 -174 -28 -166 -8 3 -14 35 -17 91 -6 96 -25 135
-74 148 -16 4 -40 19 -55 33 -14 14 -36 34 -49 43 -27 21 -22 45 11 60 22 10
81 3 132 -17z m2556 -73 c-10 -9 -11 -8 -5 6 3 10 9 15 12 12 3 -3 0 -11 -7
-18z m200 -167 c47 -5 184 -19 305 -30 120 -11 291 -26 379 -35 88 -8 212 -20
275 -26 63 -6 120 -15 126 -20 7 -5 14 -38 16 -72 3 -46 11 -73 33 -107 28
-44 109 -189 167 -299 30 -58 32 -69 19 -89 -7 -11 -25 -12 -107 -1 -55 6
-103 16 -109 21 -5 4 -16 8 -24 8 -8 0 -34 19 -58 42 -23 23 -45 39 -48 36 -7
-7 23 -77 46 -107 25 -31 24 -58 -1 -71 -11 -6 -29 -28 -40 -50 -35 -68 -90
-90 -130 -50 -30 30 -25 59 20 101 40 38 40 39 26 73 -8 19 -26 42 -40 51 -48
31 -46 94 2 96 l27 0 -25 10 c-14 6 -39 8 -55 5 -17 -4 -62 3 -103 14 -39 11
-85 20 -101 20 -16 0 -63 14 -104 30 -81 32 -112 36 -151 19 -21 -10 -40 -7
-115 20 -50 17 -100 31 -111 31 -12 0 -40 -16 -63 -35 -36 -31 -47 -35 -98
-35 -31 0 -79 6 -105 14 -72 21 -181 39 -193 32 -16 -10 -30 25 -19 48 6 12
43 48 83 81 40 33 78 70 84 83 6 12 14 55 17 95 11 117 9 116 175 97z m-2311
-103 c0 -38 -13 -62 -29 -53 -9 6 -7 46 5 84 7 24 24 2 24 -31z m141 -20 c-14
-14 -25 -2 -15 15 5 7 9 16 10 21 4 20 7 20 11 -2 3 -13 0 -28 -6 -34z m400
-197 c21 -12 25 -41 9 -70 -14 -27 3 -34 39 -16 16 9 48 18 72 22 24 4 51 12
59 19 8 6 24 15 34 19 23 8 191 -31 205 -48 5 -6 11 -33 12 -58 2 -26 6 -45 9
-43 4 2 16 -3 26 -13 42 -38 90 -69 117 -76 15 -3 27 -10 27 -15 0 -14 -63
-50 -112 -65 l-43 -12 3 -61 c4 -74 -4 -81 -118 -108 -96 -23 -137 -61 -174
-160 -14 -39 -26 -77 -26 -86 0 -8 -4 -19 -8 -25 -5 -5 -21 -40 -37 -79 -66
-165 -82 -192 -129 -224 -25 -17 -48 -36 -51 -41 -7 -11 34 -29 77 -35 15 -2
32 -6 38 -10 5 -3 10 0 10 7 0 8 7 5 18 -8 16 -20 18 -20 34 -3 9 9 14 20 11
22 -8 9 17 48 28 42 11 -7 12 -45 1 -45 -4 0 -8 -34 -9 -75 -1 -66 -5 -80 -32
-122 -17 -27 -48 -57 -68 -68 -47 -25 -89 -86 -103 -150 -18 -75 -79 -194
-109 -210 -14 -8 -22 -14 -17 -15 12 0 -59 -66 -80 -74 -8 -3 -20 -19 -25 -36
-6 -16 -15 -30 -21 -30 -8 0 -97 -88 -136 -135 -11 -13 -35 -16 -135 -14 -92
1 -131 -2 -158 -14 -36 -16 -38 -16 -82 14 -100 66 -347 375 -347 434 0 13 6
38 14 56 7 19 17 57 21 84 11 81 60 171 131 240 62 62 63 62 60 114 -2 37 -9
58 -26 76 -17 18 -21 31 -17 54 6 31 61 121 109 181 98 122 153 186 181 209
46 38 57 49 57 58 0 4 15 20 33 34 18 14 41 44 52 65 11 21 26 43 33 47 6 4
12 14 12 21 0 7 10 24 23 37 12 14 33 49 47 78 16 35 59 88 125 156 82 85 108
106 145 116 25 7 70 20 100 30 65 22 66 22 91 9z m1973 -113 c88 -47 73 -59
-49 -40 -55 9 -72 35 -39 60 23 17 19 18 88 -20z m289 -46 c53 -23 61 -47 20
-57 -16 -3 -36 -8 -45 -10 -9 -3 -35 4 -57 16 -22 11 -47 20 -56 20 -26 0 -17
38 13 49 33 13 63 8 125 -18z m208 -45 c35 -13 50 -25 63 -53 16 -33 16 -41 1
-121 -9 -47 -23 -98 -31 -114 -29 -56 -110 -71 -149 -28 -14 15 -15 30 -10 85
4 37 13 68 19 70 6 3 25 10 41 16 l30 12 -35 11 c-81 27 -89 35 -85 83 1 24 4
45 6 47 31 26 58 24 150 -8z m-566 8 c9 -9 14 -19 11 -21 -9 -9 -46 9 -46 23
0 19 15 18 35 -2z m308 -59 c20 -22 18 -75 -4 -101 -19 -24 -86 -18 -114 11
-14 13 -25 29 -25 34 0 18 21 66 33 73 23 15 91 5 110 -17z m-2733 -8 c0 -2
-10 -12 -22 -23 l-23 -19 19 23 c18 21 26 27 26 19z m5080 -22 c0 -13 -143
-94 -235 -134 -150 -65 -217 -100 -248 -130 -55 -51 -157 -280 -207 -466 -37
-137 -95 -431 -102 -512 -1 -7 -5 -10 -10 -7 -8 5 -6 51 8 194 6 67 53 308 69
361 8 26 15 53 15 61 0 17 75 199 120 290 54 111 89 138 259 204 68 27 167 69
220 95 96 48 111 54 111 44z m-8461 -175 c1 -30 5 -71 10 -90 5 -19 12 -59 16
-87 7 -52 6 -53 -19 -53 l-26 0 1 188 c1 128 4 173 10 142 4 -25 8 -70 8 -100z
m3137 120 c13 -5 24 -15 24 -21 0 -8 -17 -9 -57 -4 -62 7 -80 16 -68 35 8 12
54 7 101 -10z m168 -25 c-4 -8 -11 -15 -16 -15 -6 0 -5 6 2 15 7 8 14 15 16
15 2 0 1 -7 -2 -15z m-50 -61 c-11 -15 -23 -34 -29 -43 -33 -55 -116 -145
-187 -206 -99 -83 -199 -182 -253 -248 -40 -49 -56 -56 -34 -15 11 21 75 103
106 135 6 7 20 23 30 36 10 13 50 47 88 76 39 30 81 65 95 80 21 22 150 167
185 207 19 22 18 5 -1 -22z m-2078 -50 c-4 -14 -9 -24 -12 -21 -3 2 -2 17 2
31 3 15 9 25 11 22 3 -3 2 -17 -1 -32z m3348 20 c22 -21 21 -25 -18 -81 -18
-27 -43 -68 -56 -92 -12 -24 -26 -49 -31 -55 -30 -36 -124 -183 -179 -280 -37
-65 -91 -132 -123 -151 -33 -20 -82 -13 -73 10 3 8 -2 31 -10 52 -25 60 7 211
57 273 16 19 38 46 49 59 11 13 20 32 20 42 0 22 33 44 79 53 19 3 50 19 70
34 19 15 49 32 66 38 16 6 35 19 40 30 16 32 49 70 65 77 24 9 28 8 44 -9z
m3865 -11 c0 -16 -6 -55 -13 -88 l-13 -60 -39 2 c-21 1 -55 7 -74 12 -19 6
-46 12 -60 15 -14 3 -32 11 -40 16 -13 9 -11 14 13 33 32 25 183 94 210 96 12
1 17 -6 16 -26z m-5830 -33 c62 -11 170 -72 230 -129 l44 -41 -45 -48 c-24
-26 -53 -57 -64 -70 -19 -23 -41 -24 -139 -8 -32 6 -246 120 -260 138 -16 23
-16 23 -30 4 -9 -11 -15 -42 -15 -69 0 -29 -4 -46 -10 -42 -15 10 -10 114 8
169 9 27 28 58 42 68 45 33 149 45 239 28z m5966 -141 c5 -5 -13 -9 -44 -9
-34 0 -58 5 -68 15 -13 14 -9 15 44 9 32 -4 62 -10 68 -15z m169 -18 c134 -24
160 -40 164 -102 2 -43 2 -43 -13 -19 -8 14 -14 32 -15 41 0 16 -75 48 -86 36
-3 -3 -21 1 -40 9 -18 8 -37 13 -41 12 -9 -1 -34 7 -78 27 -41 19 -18 18 109
-4z m1846 -131 l0 -140 -26 0 c-24 0 -26 3 -21 29 3 16 14 79 24 140 9 61 18
111 20 111 2 0 3 -63 3 -140z m-3843 40 c20 -12 35 -30 38 -47 4 -15 15 -52
26 -81 29 -82 35 -61 -89 -310 -23 -45 -42 -86 -42 -90 0 -4 -14 -22 -31 -40
-26 -28 -36 -33 -58 -27 -14 4 -47 9 -72 10 -25 1 -56 6 -70 10 -13 5 -119 9
-235 9 -182 1 -214 4 -237 19 -14 9 -39 17 -55 17 -32 0 -52 16 -52 43 0 17
-6 18 -72 12 -56 -5 -92 -2 -158 13 -47 11 -118 28 -157 37 -70 17 -73 18 -73
47 0 52 83 108 159 108 23 0 83 -7 134 -15 156 -25 348 -45 432 -45 97 0 286
-33 317 -54 27 -19 71 -21 99 -3 18 10 23 9 40 -15 12 -16 27 -28 34 -28 7 0
29 18 49 40 30 34 36 47 36 85 0 29 -9 64 -25 95 -14 27 -25 56 -25 64 0 8 -7
19 -15 23 -13 8 -13 16 5 68 28 81 42 89 97 55z m-1738 -26 c10 -9 -35 -3 -49
6 -11 8 -7 9 15 4 17 -4 32 -8 34 -10z m140 -12 c3 -6 17 -12 31 -15 14 -2 -6
-2 -45 1 -69 5 -105 15 -105 31 0 11 112 -5 119 -17z m-2786 -38 c10 -19 13
-33 7 -29 -14 9 -42 65 -32 65 5 0 16 -16 25 -36z m2914 20 c-3 -3 -12 -4 -19
-1 -8 3 -5 6 6 6 11 1 17 -2 13 -5z m408 -54 c4 -6 -10 -10 -34 -10 -23 0 -41
5 -41 10 0 6 15 10 34 10 19 0 38 -4 41 -10z m-3235 -101 c59 -88 71 -127 43
-137 -7 -2 -15 2 -17 10 -16 62 -33 101 -62 150 -19 31 -34 59 -34 62 0 16 15
-2 70 -85z m3340 77 c0 -9 -7 -12 -20 -9 -11 3 -20 9 -20 14 0 5 9 9 20 9 11
0 20 -6 20 -14z m-3390 -118 c23 -38 44 -107 35 -116 -10 -11 -32 22 -54 81
-24 67 -24 67 -11 67 6 0 19 -15 30 -32z m8110 -163 c0 -83 -1 -85 -24 -85
l-23 0 20 85 c12 47 22 85 24 85 2 0 3 -38 3 -85z m-5690 5 c58 -6 188 -17
290 -25 102 -9 195 -20 207 -25 12 -5 31 -26 42 -47 10 -21 35 -54 55 -72 48
-47 46 -71 -10 -134 -54 -60 -69 -93 -77 -169 -6 -59 -51 -159 -119 -263 l-33
-50 -131 -6 c-130 -7 -187 -21 -214 -54 -16 -19 -210 -494 -277 -680 -28 -76
-88 -201 -100 -208 -15 -9 -83 25 -83 42 0 17 36 214 70 382 14 70 24 175 30
319 5 118 16 267 24 330 8 63 20 153 26 200 14 112 77 426 90 451 12 22 46 24
210 9z m3945 -85 c22 -8 51 -15 64 -15 13 0 21 -3 18 -7 -14 -13 -130 -2 -166
17 l-36 19 40 0 c22 0 58 -6 80 -14z m-6662 -120 c75 -31 147 -139 147 -222 0
-48 -42 -112 -100 -151 l-35 -23 -32 38 c-18 21 -38 49 -45 62 -12 21 -10 26
25 53 38 31 46 55 25 76 -19 19 -44 14 -76 -13 -31 -26 -53 -76 -72 -165 -36
-162 -129 -260 -249 -260 -89 0 -142 35 -188 124 -56 111 -16 231 99 292 27
14 28 13 68 -41 22 -30 40 -57 40 -61 0 -4 -20 -25 -45 -48 -50 -47 -53 -54
-27 -86 17 -22 20 -22 49 -6 58 29 76 65 118 228 22 85 62 147 115 177 76 43
126 50 183 26z m8327 -115 l0 -90 -29 0 -29 0 15 53 c8 28 19 69 25 90 6 20
12 37 14 37 2 0 4 -40 4 -90z m-5953 58 c-3 -8 -6 -5 -6 6 -1 11 2 17 5 13 3
-3 4 -12 1 -19z m1073 -11 c0 -7 -9 -19 -20 -27 -11 -8 -20 -19 -20 -26 0 -6
-9 -19 -20 -29 -11 -10 -20 -26 -20 -35 0 -9 -4 -20 -9 -25 -5 -6 -15 -38 -22
-73 -13 -61 -12 -66 11 -110 36 -67 56 -67 70 2 6 31 16 58 21 61 5 4 9 13 9
22 0 8 13 31 30 49 16 19 33 47 36 62 7 31 43 74 55 67 4 -3 10 4 14 15 11 36
49 47 123 38 37 -5 77 -16 89 -24 12 -8 27 -14 32 -14 6 0 52 -19 102 -42 l91
-43 -5 -87 c-3 -52 -1 -86 4 -82 5 3 7 10 4 15 -4 5 1 9 9 9 11 0 16 9 16 29
0 16 9 39 20 52 l19 24 0 -30 c1 -78 -19 -157 -52 -212 -52 -86 -77 -133 -77
-143 0 -4 16 -14 37 -21 l36 -12 -24 -18 c-13 -10 -33 -21 -44 -25 -11 -3 -36
-13 -55 -22 -19 -9 -42 -15 -50 -14 -18 3 -37 -37 -61 -131 -11 -38 -29 -84
-42 -101 -34 -47 -97 -195 -97 -229 0 -9 -4 -19 -10 -22 -5 -3 -10 -19 -10
-34 0 -15 -9 -36 -20 -46 -11 -10 -20 -24 -20 -31 0 -7 -6 -19 -12 -26 -22
-24 -38 -57 -38 -78 0 -25 -56 -134 -85 -165 -29 -32 -100 -39 -390 -39 -215
0 -267 3 -375 23 -196 35 -258 51 -264 67 -9 23 1 54 66 214 67 164 149 374
209 530 60 157 56 150 83 150 13 0 31 3 40 6 25 9 20 -26 -9 -68 -14 -20 -25
-39 -25 -43 0 -3 -9 -24 -19 -48 -29 -64 -69 -175 -85 -237 -8 -30 -21 -72
-30 -92 -27 -62 -2 -51 57 27 59 78 103 158 130 235 26 72 64 161 74 171 6 6
20 6 37 -1 49 -18 70 -12 117 38 62 64 109 127 109 145 0 8 6 20 14 26 11 9
11 3 -1 -36 -18 -55 -42 -112 -57 -132 -19 -25 -15 -41 9 -41 16 0 27 9 36 28
6 15 23 36 36 46 22 16 26 17 42 2 10 -9 26 -16 37 -16 11 0 36 -14 57 -31
l37 -30 0 33 c0 48 -17 101 -44 139 -45 64 -86 160 -86 203 0 43 20 118 41
158 17 31 109 118 126 118 7 0 13 -6 13 -13z m2445 -5 c34 -5 51 -12 53 -23 5
-28 -249 -389 -275 -389 -17 0 -17 9 7 207 29 237 18 213 98 212 37 0 89 -4
117 -7z m-3527 -102 c-5 -47 -18 -148 -29 -225 -11 -77 -29 -212 -40 -300 -24
-205 -26 -211 -28 -85 0 58 4 121 9 140 6 19 15 93 21 164 6 71 19 170 30 219
10 50 19 98 19 108 0 20 19 74 24 68 2 -2 -1 -42 -6 -89z m1122 45 c5 3 5 -7
1 -22 -10 -38 -31 -42 -31 -5 0 30 12 51 18 33 2 -6 7 -9 12 -6z m976 -10 c7
-17 -72 -169 -119 -230 -17 -22 -49 -60 -72 -85 -23 -25 -54 -67 -69 -93 -31
-52 -37 -55 -57 -30 -8 9 -29 22 -46 30 -18 7 -33 18 -33 23 0 6 12 33 26 60
20 39 27 68 31 142 4 77 8 96 25 111 28 24 216 79 296 86 7 0 15 -6 18 -14z
m3784 -180 c0 -33 -4 -45 -15 -45 -8 0 -15 3 -15 6 0 12 23 84 27 84 1 0 3
-20 3 -45z m-2650 -32 c0 -5 -5 -15 -10 -23 -8 -12 -10 -11 -10 8 0 12 5 22
10 22 6 0 10 -3 10 -7z m-5260 -153 c77 -116 91 -142 80 -155 -19 -23 -79 -57
-89 -51 -5 3 -26 33 -47 66 -22 33 -45 60 -52 60 -14 0 -127 -74 -137 -90 -3
-6 8 -31 25 -56 17 -26 29 -52 27 -58 -3 -7 -24 -25 -47 -41 l-42 -29 -22 25
c-11 14 -30 39 -42 54 l-20 29 -87 -60 c-48 -32 -87 -63 -87 -69 0 -5 18 -37
40 -70 22 -33 40 -65 40 -72 0 -14 -68 -63 -87 -63 -15 0 -193 263 -193 284 0
8 52 50 115 93 63 43 201 138 307 210 106 73 200 133 209 133 10 0 53 -56 109
-140z m5992 46 c95 -41 220 -95 278 -121 58 -25 138 -60 179 -77 40 -18 75
-38 78 -45 4 -11 -59 -117 -77 -128 -3 -2 -38 11 -78 27 -71 30 -73 31 -87 12
-43 -58 -42 -61 13 -117 29 -29 52 -59 52 -66 0 -17 -55 -104 -76 -122 -13
-11 -57 29 -290 262 -151 150 -274 281 -274 289 0 19 93 160 105 160 3 0 82
-33 177 -74z m1838 -86 c0 -57 -1 -60 -25 -60 l-25 0 16 38 c9 20 19 47 21 60
9 37 13 25 13 -38z m-9852 -11 c-2 -6 -8 -10 -13 -10 -5 0 -11 4 -13 10 -2 6
4 11 13 11 9 0 15 -5 13 -11z m4862 -123 c0 -3 -4 -8 -10 -11 -5 -3 -10 -1
-10 4 0 6 5 11 10 11 6 0 10 -2 10 -4z m2832 -33 c21 -20 38 -41 38 -46 0 -5
-14 -25 -31 -44 -29 -34 -30 -36 -12 -55 10 -12 115 -106 233 -210 118 -105
216 -196 218 -204 5 -22 -88 -126 -109 -122 -10 2 -119 92 -243 201 -123 108
-231 197 -240 197 -8 0 -25 -13 -38 -30 -12 -16 -29 -30 -38 -30 -25 0 -91 60
-88 80 4 25 240 300 258 300 8 0 31 -17 52 -37z m2078 -13 c0 -33 -3 -40 -19
-40 -19 0 -19 2 -4 40 9 22 18 40 20 40 1 0 3 -18 3 -40z m-7540 -48 c25 -15
66 -56 92 -90 80 -105 75 -188 -18 -291 -64 -71 -76 -72 -127 -15 -78 88 -77
82 -25 128 64 57 74 80 48 106 -35 35 -42 32 -195 -104 -146 -130 -225 -209
-225 -227 0 -9 9 -24 21 -34 19 -18 21 -18 54 -1 19 10 44 29 56 42 31 34 53
30 95 -16 67 -73 69 -78 43 -107 -13 -14 -51 -43 -83 -64 -51 -34 -67 -39
-117 -39 -77 0 -101 11 -161 72 -92 94 -110 179 -62 277 20 40 57 80 158 169
189 169 221 193 279 214 63 22 106 17 167 -20z m7460 -117 c0 -28 -4 -35 -19
-35 -18 0 -18 2 -2 35 9 19 17 34 19 35 1 0 2 -16 2 -35z m-3909 -58 c-10 -9
-11 -8 -5 6 3 10 9 15 12 12 3 -3 0 -11 -7 -18z m-2536 -2 c22 -8 35 -14 29
-15 -13 0 -42 -75 -41 -105 0 -11 8 -26 19 -33 21 -15 25 -62 4 -62 -12 0 -42
16 -124 65 -48 28 -112 77 -112 85 0 5 -7 15 -15 23 -13 13 -10 16 20 21 19 4
35 11 35 16 0 8 37 14 115 18 17 1 48 -5 70 -13z m6365 -100 c0 -28 -4 -35
-20 -35 -19 0 -19 1 -3 35 9 19 18 35 20 35 2 0 3 -16 3 -35z m-2222 -120 c59
-46 194 -152 300 -236 105 -83 192 -157 192 -164 0 -12 -100 -105 -113 -105
-3 0 -29 20 -58 45 -29 25 -60 45 -68 45 -16 0 -71 -48 -71 -63 0 -5 16 -35
35 -67 19 -32 35 -62 35 -68 0 -17 -93 -102 -111 -102 -11 0 -50 56 -109 158
-52 86 -133 223 -181 304 -110 184 -120 204 -113 220 10 22 123 118 139 118 9
0 64 -38 123 -85z m-4771 35 c53 -24 136 -100 157 -145 26 -53 20 -122 -13
-180 -16 -27 -43 -64 -59 -82 -25 -26 -34 -31 -57 -25 -33 9 -124 82 -125 101
0 7 16 35 35 61 38 52 43 80 19 104 -22 22 -29 20 -67 -17 -67 -67 -287 -338
-287 -353 0 -28 20 -54 42 -54 13 0 40 20 68 51 56 61 61 60 145 -15 l60 -53
-35 -40 c-49 -55 -108 -97 -156 -112 -60 -19 -127 5 -200 71 -102 94 -118 174
-58 290 37 73 255 331 312 370 75 52 147 61 219 28z m6913 -70 c0 -36 -2 -40
-26 -40 l-25 0 22 40 c13 22 24 40 26 40 2 0 3 -18 3 -40z m-80 -150 c0 -49
-1 -50 -30 -50 -16 0 -30 3 -30 6 0 8 51 94 56 94 2 0 4 -22 4 -50z m-6492
-81 c44 -29 62 -47 59 -58 -7 -27 -417 -641 -428 -641 -12 0 -125 75 -134 89
-5 9 63 116 332 524 46 70 90 127 96 127 7 0 41 -19 75 -41z m4082 -246 c96
-144 181 -263 189 -263 8 0 43 19 78 41 70 46 74 45 111 -19 l22 -40 -62 -44
c-140 -99 -220 -149 -231 -145 -20 7 -429 624 -425 641 4 20 108 95 128 93 8
-1 94 -120 190 -264z m2330 222 c0 -19 -5 -25 -20 -25 -20 0 -20 1 -3 25 22
30 23 30 23 0z m-80 -140 c0 -45 0 -45 -35 -45 l-35 0 32 45 c18 25 33 45 35
45 2 0 3 -20 3 -45z m-5993 -26 c67 -33 130 -99 139 -144 15 -80 1 -127 -97
-321 -107 -213 -154 -274 -228 -294 -110 -29 -288 73 -307 177 -12 65 12 141
103 322 90 177 144 253 198 278 42 19 133 10 192 -18z m3369 5 c38 -18 80 -67
115 -134 17 -33 23 -62 24 -111 0 -57 -4 -70 -28 -102 -16 -21 -52 -51 -80
-67 -29 -16 -58 -33 -66 -37 -11 -7 1 -38 57 -152 39 -79 69 -148 66 -153 -6
-9 -88 -52 -130 -68 -24 -9 -28 -3 -194 330 -94 187 -170 347 -170 355 0 10
52 41 141 85 154 76 199 85 265 54z m2544 -74 c0 -23 -4 -30 -20 -30 -24 0
-25 5 -2 35 22 31 22 31 22 -5z m-5577 -97 c32 -12 49 -24 52 -38 2 -11 9 -91
16 -178 7 -87 15 -159 18 -162 4 -2 29 62 55 143 27 81 52 151 56 156 9 9 108
-20 127 -38 10 -9 -12 -87 -107 -371 -66 -198 -124 -363 -129 -368 -13 -13
-109 21 -115 41 -3 9 -8 87 -11 172 -7 169 -12 203 -26 178 -4 -8 -29 -77 -54
-154 -25 -76 -50 -143 -55 -148 -11 -11 -140 32 -140 47 0 19 232 711 243 725
12 15 13 15 70 -5z m5497 2 c0 -8 -4 -15 -10 -15 -5 0 -7 7 -4 15 4 8 8 15 10
15 2 0 4 -7 4 -15z m-3220 -207 c104 -219 280 -601 280 -609 0 -7 -67 -31
-122 -43 -31 -7 -42 6 -74 86 -16 41 -23 48 -46 48 -15 0 -38 -4 -53 -10 -26
-10 -26 -11 -23 -92 l3 -81 -70 -18 c-38 -10 -75 -17 -81 -15 -7 3 -15 78 -23
198 -22 358 -31 503 -36 538 -2 19 -1 41 4 48 9 14 121 49 164 51 26 1 32 -6
77 -101z m-1644 31 c32 -7 65 -16 72 -22 18 -14 18 -785 -1 -792 -7 -3 -42 1
-77 8 l-65 13 -3 82 c-3 89 -3 90 -76 95 -28 2 -32 -2 -56 -65 -14 -37 -29
-70 -32 -74 -10 -10 -150 18 -155 31 -2 7 26 90 63 186 36 96 95 250 131 343
35 94 69 178 74 188 11 21 41 23 125 7z m4704 -44 c0 -32 -2 -35 -31 -35 l-31
0 29 34 c15 19 29 35 31 35 1 1 2 -15 2 -34z m-3632 3 c5 -7 26 -146 46 -308
20 -162 41 -305 46 -318 8 -19 16 -22 38 -18 82 15 119 16 129 4 18 -22 20
-99 3 -109 -8 -4 -76 -15 -150 -24 -74 -9 -142 -18 -150 -21 -8 -2 -20 0 -27
4 -7 4 -26 126 -48 302 -20 162 -42 332 -48 378 -6 50 -7 86 -1 92 5 5 38 13
74 18 36 5 68 10 71 11 4 0 11 -5 17 -11z m-637 -25 c8 -8 6 -94 -7 -327 -9
-174 -15 -318 -12 -321 3 -3 41 -9 84 -13 l79 -7 3 -51 c2 -34 -2 -55 -11 -62
-15 -13 -326 3 -341 18 -9 9 31 756 41 773 8 12 150 4 164 -10z m3189 -27 c0
-3 -4 -8 -10 -11 -5 -3 -10 -1 -10 4 0 6 5 11 10 11 6 0 10 -2 10 -4z m1000
-41 c0 -20 -5 -25 -27 -25 l-26 0 23 25 c13 14 25 25 27 25 2 0 3 -11 3 -25z
m-80 -85 c0 -14 -7 -20 -22 -20 -20 0 -21 1 -3 20 10 11 20 20 22 20 1 0 3 -9
3 -20z m-80 -80 c0 -11 -7 -20 -15 -20 -13 0 -14 4 -5 20 6 11 13 20 15 20 3
0 5 -9 5 -20z m-1142 -27 c-10 -2 -18 -9 -18 -14 0 -5 -5 -9 -11 -9 -8 0 -8 5
1 15 7 8 20 14 29 14 13 -1 13 -2 -1 -6z m1062 -58 c0 -8 -7 -15 -16 -15 -14
0 -14 3 -4 15 7 8 14 15 16 15 2 0 4 -7 4 -15z m-80 -80 c0 -8 -7 -15 -16 -15
-14 0 -14 3 -4 15 7 8 14 15 16 15 2 0 4 -7 4 -15z m-80 -70 c0 -20 -5 -25
-27 -25 l-26 0 24 24 c31 30 29 30 29 1z m-80 -80 c0 -20 -5 -25 -27 -25 l-26
0 23 25 c13 14 25 25 27 25 2 0 3 -11 3 -25z m-6935 -15 c3 -5 -1 -10 -9 -10
-9 0 -16 5 -16 10 0 6 4 10 9 10 6 0 13 -4 16 -10z m104 -87 c2 -2 -8 -3 -22
-3 -21 0 -27 5 -27 22 0 21 0 21 23 2 12 -10 24 -20 26 -21z m6728 23 c-4 -10
-1 -13 9 -9 7 3 14 1 14 -4 0 -5 -13 -9 -30 -9 -28 0 -29 1 -13 18 19 22 27
23 20 4z m-6634 -96 c4 -3 -9 -6 -28 -6 -32 0 -35 2 -35 30 l0 29 28 -24 c15
-13 30 -26 35 -29z m74 -55 l46 -35 -51 0 -51 0 1 35 c1 19 3 35 5 35 2 0 25
-16 50 -35z m6343 -25 c0 -5 -10 -10 -22 -9 -22 0 -22 1 -3 9 11 5 21 9 23 9
1 1 2 -3 2 -9z m-6190 -86 c0 -2 -11 -4 -25 -4 -18 0 -25 5 -25 20 0 20 1 20
25 4 14 -9 25 -18 25 -20z m6110 16 c0 -16 -7 -20 -31 -20 l-31 0 23 20 c31
25 39 25 39 0z m-6014 -79 c28 -21 57 -41 65 -45 8 -3 4 -4 -8 -2 -15 3 -23
-1 -23 -9 0 -8 -4 -16 -9 -20 -6 -3 -9 4 -8 15 1 11 5 20 10 20 4 0 5 5 2 10
-3 6 -26 10 -51 10 -42 0 -44 1 -44 30 0 17 3 30 8 30 4 0 30 -17 58 -39z
m279 -172 c5 -5 -15 -9 -48 -9 l-57 0 0 36 0 36 48 -27 c26 -15 51 -32 57 -36z
m271 -144 l47 -25 -52 0 c-48 0 -51 2 -51 25 0 14 2 25 4 25 3 0 26 -11 52
-25z m174 -92 c24 -12 23 -13 -22 -13 -45 0 -48 2 -48 25 0 24 2 25 23 14 12
-7 33 -18 47 -26z m155 -68 l50 -23 -57 -1 c-55 -1 -58 0 -58 24 0 30 2 30 65
0z m4095 -15 c0 -5 -8 -10 -17 -10 -15 0 -16 2 -3 10 19 12 20 12 20 0z
m-3841 -86 c2 -2 -14 -4 -37 -4 -35 0 -42 3 -42 19 0 19 2 19 38 4 20 -8 39
-17 41 -19z m3681 11 c0 -10 -10 -15 -30 -15 -16 0 -30 5 -30 11 0 5 3 8 8 6
4 -3 16 -1 27 4 11 4 21 8 23 8 1 1 2 -6 2 -14z m-240 -75 c0 -17 -7 -20 -52
-20 -58 0 -59 3 -3 23 54 20 55 20 55 -3z m-3230 -4 l45 -15 -47 0 c-36 -1
-48 3 -48 14 0 8 1 15 3 15 1 0 22 -7 47 -14z m2990 -71 c0 -25 -1 -25 -87
-24 l-88 0 74 20 c41 10 77 21 79 24 12 12 22 3 22 -20z m-2715 -5 l70 -19
-77 0 c-72 -1 -78 1 -78 19 0 24 -2 24 85 0z m2395 -75 c0 -25 -1 -25 -87 -25
-98 1 -96 13 7 36 78 17 80 17 80 -11z m-2085 4 c33 -6 83 -14 110 -18 41 -7
30 -9 -67 -10 -112 -1 -118 0 -118 19 0 23 -3 23 75 9z m425 -63 c0 -3 -4 -8
-10 -11 -5 -3 -10 -1 -10 4 0 6 5 11 10 11 6 0 10 -2 10 -4z"/>
<path d="M8197 9286 c-5 -13 21 -46 36 -46 12 0 8 35 -5 48 -16 16 -25 15 -31
-2z"/>
<path d="M5293 8503 c-15 -22 -18 -49 -18 -148 0 -89 4 -126 14 -138 15 -18
81 -24 81 -7 0 6 7 10 15 10 8 0 15 -4 15 -10 0 -5 5 -10 10 -10 6 0 10 37 10
90 l0 90 -30 0 c-31 0 -39 -17 -19 -37 6 -6 9 -28 7 -49 -3 -34 -6 -39 -28
-39 l-25 0 3 110 c3 110 12 136 39 113 7 -6 13 -19 13 -29 0 -13 7 -19 24 -19
22 0 23 2 16 41 -9 48 -22 59 -72 59 -30 0 -41 -6 -55 -27z"/>
<path d="M5499 8445 c-1 -41 -2 -78 -3 -82 -1 -5 -6 -41 -10 -82 -10 -86 -6
-91 67 -91 44 0 47 2 47 25 0 21 -5 25 -30 25 -36 0 -42 12 -32 60 7 30 12 35
40 38 42 4 46 39 5 44 -30 3 -39 23 -29 64 5 19 13 24 37 24 26 0 30 3 27 23
-3 19 -10 22 -60 25 l-58 3 -1 -76z"/>
<path d="M4857 8498 c-37 -13 -42 -41 -27 -156 18 -141 40 -172 110 -157 48
11 53 31 41 168 -10 104 -14 125 -32 140 -23 19 -50 21 -92 5z m66 -98 c19
-143 20 -167 4 -173 -29 -11 -40 22 -45 130 -4 99 -4 105 14 101 15 -2 21 -16
27 -58z"/>
<path d="M5727 8493 c-20 -5 -47 -52 -47 -81 0 -11 16 -44 36 -73 43 -64 52
-100 30 -118 -22 -19 -47 3 -44 38 2 20 -2 27 -19 29 -21 3 -23 -1 -23 -45 0
-43 3 -51 29 -66 16 -9 38 -17 48 -17 31 0 65 44 70 92 4 38 0 50 -37 102 -22
32 -40 66 -38 75 5 23 37 26 45 4 14 -38 53 -45 53 -9 0 46 -54 83 -103 69z"/>
<path d="M4704 8480 c-11 -11 8 -168 27 -227 12 -38 6 -53 -21 -53 -15 0 -21
9 -26 40 -7 45 -14 53 -39 44 -14 -6 -16 -15 -11 -48 13 -76 47 -103 109 -83
16 6 30 18 33 34 14 56 -27 303 -51 303 -6 0 -16 -5 -21 -10z"/>
<path d="M5900 8443 c0 -13 4 -23 9 -23 24 0 16 -64 -27 -233 -9 -35 -8 -39
11 -47 12 -4 25 -5 29 -1 3 3 13 40 21 81 37 178 37 179 60 182 14 2 22 10 22
22 0 17 -11 22 -62 31 -63 12 -63 11 -63 -12z"/>
<path d="M6265 8450 c-4 -12 -5 -23 -3 -24 26 -17 58 -36 63 -36 15 0 2 29
-24 54 -29 28 -29 28 -36 6z"/>
<path d="M4444 8426 c-17 -6 -32 -13 -34 -16 -2 -3 2 -39 8 -80 7 -41 16 -110
21 -153 5 -43 11 -81 14 -84 3 -2 15 -2 26 2 15 4 21 15 21 35 0 15 7 30 15
34 15 5 45 -18 45 -35 0 -6 10 -9 23 -7 12 2 21 9 20 18 -4 43 -102 295 -114
296 -8 1 -28 -3 -45 -10z m55 -115 c26 -79 27 -114 5 -109 -26 5 -58 151 -37
171 9 9 8 10 32 -62z"/>
<path d="M6080 8398 c0 -13 -7 -48 -16 -78 -26 -89 -51 -209 -46 -215 13 -13
40 -3 45 18 4 12 15 58 26 102 11 44 26 103 34 132 16 57 14 63 -20 63 -17 0
-23 -6 -23 -22z"/>
<path d="M6206 8358 c-20 -31 -76 -200 -76 -232 0 -33 29 -65 67 -72 46 -9 73
25 106 135 42 141 35 178 -40 188 -35 5 -43 2 -57 -19z m74 -52 c0 -22 -13
-70 -30 -111 -5 -11 -11 -31 -14 -45 -9 -39 -22 -54 -41 -46 -19 7 -18 18 11
126 18 67 37 100 61 100 7 0 13 -10 13 -24z"/>
<path d="M4205 8353 c-16 -8 -31 -16 -32 -17 -3 -3 25 -97 36 -121 5 -11 12
-33 16 -50 10 -49 48 -135 59 -135 26 1 95 40 106 60 9 16 8 31 -6 68 -9 26
-24 54 -33 62 -10 9 -17 31 -17 56 1 57 -26 94 -67 94 -17 -1 -45 -8 -62 -17z
m61 -31 c6 -4 15 -22 19 -40 5 -25 3 -33 -10 -38 -21 -8 -25 -3 -35 40 -10 43
-1 56 26 38z m62 -147 c7 -14 12 -37 12 -50 0 -24 -3 -27 -31 -29 -7 -1 -18
19 -25 44 -18 59 -18 60 9 60 16 0 28 -9 35 -25z"/>
<path d="M6413 8293 c-6 -16 -23 -59 -38 -98 -14 -38 -35 -92 -46 -120 -18
-47 -18 -51 -2 -62 26 -20 31 -17 47 40 17 54 41 95 52 85 3 -4 -2 -34 -10
-68 -21 -80 -20 -85 7 -97 23 -11 25 -7 67 101 23 61 49 124 56 140 18 38 18
52 -2 60 -24 9 -34 7 -34 -8 0 -21 -40 -106 -50 -106 -9 0 -6 34 10 96 15 59
-34 90 -57 37z"/>
<path d="M4020 8281 c-19 -9 -34 -21 -34 -27 3 -19 56 -210 64 -229 5 -11 12
-30 15 -42 4 -14 14 -23 26 -23 17 0 20 6 17 33 -3 27 0 32 21 35 16 3 30 -3
40 -17 14 -18 19 -19 33 -9 15 12 9 27 -55 156 -39 78 -76 142 -81 142 -6 -1
-27 -9 -46 -19z m74 -120 c34 -67 38 -101 11 -101 -13 0 -50 87 -61 146 -10
53 7 37 50 -45z"/>
<path d="M5060 8215 c0 -14 5 -25 11 -25 6 0 9 -9 6 -20 -3 -12 0 -20 8 -20
14 0 22 32 17 68 -5 32 -42 30 -42 -3z"/>
<path d="M3810 8190 c-19 -11 -39 -21 -45 -23 -6 -2 -1 -21 12 -48 12 -24 42
-88 67 -142 46 -97 67 -120 89 -98 8 8 3 28 -21 77 -18 36 -30 69 -27 75 17
27 53 -8 74 -73 7 -21 16 -40 21 -43 13 -8 40 6 40 21 0 24 -54 124 -70 129
-10 3 -16 18 -16 46 -2 49 -31 93 -65 96 -13 1 -40 -6 -59 -17z m74 -73 c8
-22 7 -30 -4 -37 -17 -11 -49 24 -50 53 0 30 43 17 54 -16z"/>
<path d="M6733 8168 c-5 -7 -16 -47 -23 -88 -7 -41 -27 -105 -44 -142 -31 -66
-32 -67 -11 -76 19 -9 24 -4 46 36 13 26 57 85 97 132 67 78 71 86 55 98 -15
11 -22 7 -55 -30 -31 -36 -38 -40 -38 -22 0 12 5 36 11 54 9 26 9 34 -2 41
-19 12 -25 11 -36 -3z"/>
<path d="M3635 8097 c-57 -36 -64 -67 -17 -67 20 0 32 -9 46 -33 51 -89 61
-105 83 -149 26 -53 26 -52 54 -38 18 10 17 14 -18 78 -100 184 -96 173 -79
191 12 13 12 19 2 34 -16 21 -10 22 -71 -16z"/>
<path d="M6954 7893 c-85 -130 -92 -144 -71 -161 12 -10 20 -3 48 38 32 47 60
62 74 40 27 -43 125 46 125 113 0 32 -5 39 -43 62 -24 14 -46 25 -50 25 -3 0
-40 -53 -83 -117z m124 30 c2 -11 -8 -34 -22 -49 -22 -26 -26 -27 -40 -14 -14
14 -13 19 11 53 28 40 46 43 51 10z"/>
<path d="M5462 7842 c-6 -37 -17 -98 -24 -137 l-13 -70 -37 1 c-29 1 -38 -3
-42 -20 -7 -27 0 -33 50 -41 l42 -6 12 73 c6 40 15 87 20 103 15 51 22 152 12
159 -5 3 -14 -24 -20 -62z"/>
<path d="M5070 7865 c0 -8 12 -18 28 -21 15 -4 30 -11 33 -17 4 -5 15 -7 25
-5 15 3 11 9 -21 31 -44 30 -65 34 -65 12z"/>
<path d="M7129 7764 c-57 -64 -105 -119 -107 -124 -5 -14 40 -23 48 -10 4 6
18 10 31 8 24 -3 30 -24 15 -58 -4 -9 2 -20 14 -28 17 -11 21 -10 27 5 4 10
27 50 52 90 25 39 60 94 78 122 l31 51 -38 30 c-21 16 -40 30 -42 30 -3 0 -52
-52 -109 -116z m112 23 c-9 -23 -51 -90 -71 -114 -6 -7 -18 -13 -26 -13 -26 0
-12 36 36 94 48 58 76 74 61 33z"/>
<path d="M5637 7864 c-2 -5 -8 -43 -12 -84 -8 -79 3 -88 21 -17 10 40 12 42
50 43 29 0 40 5 42 18 2 10 0 22 -5 27 -12 12 -90 23 -96 13z"/>
<path d="M4948 7853 c6 -2 18 -2 25 0 6 3 1 5 -13 5 -14 0 -19 -2 -12 -5z"/>
<path d="M5851 7765 c-6 -36 -9 -71 -5 -77 4 -7 3 -8 -4 -4 -8 5 -12 -4 -12
-27 0 -34 -15 -54 -57 -76 -24 -12 -118 -2 -191 21 -47 14 -59 -2 -28 -35 16
-18 35 -27 55 -27 16 0 40 -4 53 -9 13 -5 47 -12 75 -16 49 -6 55 -5 82 22 23
24 30 42 36 89 3 32 11 87 17 122 8 42 8 66 2 72 -7 7 -14 -11 -23 -55z"/>
<path d="M6026 7786 c-3 -14 -8 -54 -11 -88 l-4 -63 17 53 c17 52 17 52 59 52
39 0 43 2 43 24 0 18 -7 25 -27 30 -16 3 -38 8 -49 12 -17 4 -23 0 -28 -20z"/>
<path d="M5020 7761 c-39 -11 -31 -35 13 -39 37 -3 42 2 31 32 -7 17 -7 17
-44 7z"/>
<path d="M6242 7713 c-6 -27 -14 -71 -18 -99 -7 -60 -9 -63 -52 -93 -35 -25
-30 -25 -196 9 -27 5 -51 8 -54 6 -8 -9 33 -56 53 -60 11 -2 57 -12 101 -22
82 -17 82 -17 113 5 35 25 35 24 60 176 20 112 15 165 -7 78z"/>
<path d="M7345 7698 c-25 -29 -27 -38 -22 -87 6 -60 -14 -121 -39 -121 -22 0
-28 28 -13 56 11 22 11 27 -1 34 -23 15 -27 13 -49 -24 -27 -43 -26 -48 5 -85
31 -38 68 -40 105 -7 44 38 52 62 44 131 -5 51 -3 65 10 79 13 13 20 14 31 5
8 -7 12 -20 9 -29 -3 -9 2 -23 10 -30 13 -11 18 -10 30 6 21 28 18 58 -8 82
-35 33 -79 29 -112 -10z"/>
<path d="M3957 7623 c-13 -13 -7 -21 13 -16 11 3 17 9 14 14 -6 11 -18 12 -27
2z"/>
<path d="M6456 7611 c-6 -10 52 -21 71 -14 7 3 10 9 7 14 -7 12 -71 12 -78 0z"/>
<path d="M7455 7513 c-109 -115 -124 -138 -107 -155 10 -10 35 9 122 97 76 76
109 116 107 130 -4 39 -33 22 -122 -72z"/>
<path d="M6572 7558 c5 -15 118 -24 118 -10 0 15 -26 22 -77 22 -31 0 -43 -4
-41 -12z"/>
<path d="M6351 7506 c11 -19 31 -41 44 -50 26 -17 55 -21 55 -8 0 16 -93 92
-112 92 -4 0 2 -15 13 -34z"/>
<path d="M6472 7500 c14 -21 76 -50 109 -50 19 0 19 1 1 20 -19 21 -82 50
-107 50 -13 0 -13 -3 -3 -20z"/>
<path d="M7537 7433 c-114 -106 -125 -131 -84 -179 36 -42 74 -37 132 17 144
132 155 154 110 203 -42 45 -75 36 -158 -41z m127 -15 c-5 -8 -41 -44 -80 -81
-63 -59 -73 -65 -89 -54 -23 18 -12 33 78 115 61 55 72 61 85 49 9 -10 11 -20
6 -29z"/>
<path d="M10256 5312 c-15 -14 -4 -32 19 -32 30 0 34 25 6 33 -11 3 -22 2 -25
-1z"/>
<path d="M430 3435 c0 -5 5 -17 10 -25 5 -8 10 -10 10 -5 0 6 -5 17 -10 25 -5
8 -10 11 -10 5z"/>
<path d="M490 3285 c0 -5 5 -17 10 -25 5 -8 10 -10 10 -5 0 6 -5 17 -10 25 -5
8 -10 11 -10 5z"/>
<path d="M511 3235 c0 -5 6 -21 14 -35 8 -14 14 -20 14 -15 0 6 -6 21 -14 35
-8 14 -14 21 -14 15z"/>
<path d="M650 2935 c0 -12 32 -67 36 -63 4 5 -25 68 -32 68 -2 0 -4 -2 -4 -5z"/>
<path d="M9235 2628 c-54 -38 -106 -92 -125 -129 -21 -41 -83 -99 -105 -99 -8
0 -15 -4 -15 -9 0 -5 -6 -16 -13 -23 -10 -11 -83 -100 -129 -158 -7 -8 -48
-53 -93 -100 -44 -47 -76 -82 -71 -77 5 4 19 1 32 -7 19 -13 24 -13 38 3 9 10
16 25 14 32 -2 8 9 15 28 19 36 6 73 35 96 75 9 17 25 35 34 40 28 16 44 32
37 39 -4 3 1 6 10 6 10 0 17 3 17 8 0 4 12 22 28 39 90 103 122 143 122 152 0
5 8 16 18 23 9 7 23 25 30 39 8 14 25 38 38 54 13 15 21 32 18 36 -3 5 1 9 9
9 7 0 19 11 25 25 15 32 -1 33 -43 3z"/>
<path d="M1140 2146 c0 -2 8 -10 18 -17 15 -13 16 -12 3 4 -13 16 -21 21 -21
13z"/>
<path d="M1340 1904 c0 -6 21 -30 48 -54 l47 -45 -45 50 c-25 27 -46 52 -47
54 -2 2 -3 0 -3 -5z"/>
<path d="M1450 1775 c13 -14 26 -25 28 -25 3 0 -5 11 -18 25 -13 14 -26 25
-28 25 -3 0 5 -11 18 -25z"/>
<path d="M1490 1737 c0 -2 15 -16 33 -33 l32 -29 -29 33 c-28 30 -36 37 -36
29z"/>
<path d="M7995 1530 c-3 -5 -1 -10 4 -10 6 0 11 5 11 10 0 6 -2 10 -4 10 -3 0
-8 -4 -11 -10z"/>
<path d="M1720 1507 c0 -2 15 -16 33 -33 l32 -29 -29 33 c-28 30 -36 37 -36
29z"/>
<path d="M5835 9678 c-8 -24 -22 -173 -17 -185 6 -18 73 -16 99 2 41 29 50
137 14 168 -24 21 -90 31 -96 15z"/>
<path d="M6425 9546 c-8 -18 -20 -60 -28 -94 -12 -51 -12 -64 -1 -73 21 -18
81 -15 103 5 17 16 41 84 41 119 0 25 -33 57 -68 67 -32 9 -34 7 -47 -24z"/>
<path d="M7005 9364 c-22 -22 -33 -45 -120 -248 -85 -197 -91 -233 -42 -250
22 -8 31 -6 46 9 27 28 191 416 191 452 0 22 -7 33 -25 41 -32 15 -30 15 -50
-4z"/>
<path d="M3607 9320 c-7 -11 -12 -32 -9 -47 7 -43 185 -425 203 -436 25 -15
68 0 75 27 6 26 -9 66 -115 296 -39 85 -79 161 -88 168 -24 18 -50 15 -66 -8z"/>
<path d="M8037 8408 c-80 -64 -91 -85 -57 -106 17 -11 23 -7 58 41 68 93 84
118 80 123 -3 2 -39 -24 -81 -58z"/>
<path d="M8518 8144 c-38 -31 -68 -62 -68 -69 0 -22 52 -65 79 -65 61 0 128
68 118 120 -7 31 -35 70 -52 70 -5 0 -40 -26 -77 -56z"/>
<path d="M8860 7308 c-47 -17 -87 -33 -89 -34 -9 -8 19 -54 32 -54 12 0 130
81 162 111 17 16 -18 9 -105 -23z"/>
<path d="M2151 7241 c-10 -6 -10 -22 -1 -74 14 -76 25 -90 72 -85 l33 3 -2 64
c-1 38 -7 69 -15 76 -17 16 -70 26 -87 16z"/>
<path d="M1080 7250 c0 -5 9 -10 20 -10 11 0 20 5 20 10 0 6 -9 10 -20 10 -11
0 -20 -4 -20 -10z"/>
<path d="M1031 7214 c0 -11 3 -14 6 -6 3 7 2 16 -1 19 -3 4 -6 -2 -5 -13z"/>
<path d="M4515 6600 c-9 -14 5 -112 17 -127 12 -14 64 -18 72 -5 9 15 -11 124
-25 133 -19 12 -56 11 -64 -1z"/>
<path d="M8507 6653 c-3 -4 -8 -37 -12 -73 l-7 -65 23 22 c17 17 23 34 23 69
1 43 -14 69 -27 47z"/>
<path d="M6009 6595 c-3 -2 3 -62 13 -132 33 -238 29 -226 63 -235 64 -17 64
-16 33 251 -11 94 -15 104 -36 112 -25 10 -66 12 -73 4z"/>
<path d="M7423 6359 c-12 -12 -6 -87 10 -106 14 -18 54 -16 61 3 10 26 7 69
-6 86 -17 22 -51 31 -65 17z"/>
<path d="M7444 6116 c-10 -40 14 -95 43 -102 55 -14 66 58 16 104 -31 29 -51
28 -59 -2z"/>
<path d="M7388 4940 c-10 -6 -43 -12 -73 -13 -59 -3 -75 -14 -75 -54 0 -26 21
-29 80 -13 19 5 48 11 64 14 16 3 33 10 36 17 4 6 19 12 34 12 14 1 26 5 26
10 0 4 9 7 20 7 28 0 25 15 -2 16 -13 0 -39 4 -58 7 -20 4 -43 3 -52 -3z"/>
<path d="M7592 4710 c-18 -11 -40 -20 -50 -20 -20 -1 -62 -34 -62 -49 0 -16
16 -14 34 4 8 9 30 21 47 27 30 10 34 9 56 -16 39 -46 87 -10 59 46 -15 30
-43 33 -84 8z"/>
<path d="M7405 4710 c3 -5 12 -7 20 -3 21 7 19 13 -6 13 -11 0 -18 -4 -14 -10z"/>
<path d="M7397 4592 c-18 -20 -22 -42 -8 -42 8 0 41 43 41 55 0 11 -18 4 -33
-13z"/>
<path d="M7650 4540 c-19 -15 -21 -20 -9 -20 16 0 46 27 38 35 -2 2 -15 -5
-29 -15z"/>
<path d="M7537 4382 c-23 -58 -21 -76 4 -29 11 21 19 46 17 55 -2 11 -10 1
-21 -26z"/>
<path d="M7501 4294 c0 -11 3 -14 6 -6 3 7 2 16 -1 19 -3 4 -6 -2 -5 -13z"/>
<path d="M7452 4088 c-7 -7 -12 -20 -12 -31 0 -10 -5 -27 -10 -38 -7 -13 -7
-19 0 -19 5 0 10 7 10 16 0 11 6 14 20 9 18 -6 20 -2 20 34 0 42 -7 50 -28 29z"/>
<path d="M6646 3547 c-15 -19 -26 -37 -26 -41 0 -5 -13 -28 -30 -53 -16 -24
-30 -48 -30 -53 0 -5 -21 -25 -46 -46 -58 -48 -70 -72 -83 -169 -6 -44 -13
-100 -17 -125 -9 -63 -6 -179 5 -215 l9 -30 1 28 c1 15 9 35 19 45 9 9 24 37
32 62 8 25 21 52 30 60 31 28 50 82 50 140 0 44 4 61 20 75 11 10 20 24 20 32
0 8 9 31 20 52 10 21 24 66 29 99 5 33 19 79 31 102 35 69 10 95 -34 37z"/>
<path d="M7757 6295 c-4 -8 -1 -40 6 -71 9 -43 17 -58 34 -65 41 -16 53 -2 53
62 0 48 -4 60 -22 73 -28 20 -64 21 -71 1z"/>
<path d="M9255 6050 c-4 -6 -2 -43 4 -83 6 -39 16 -106 21 -147 10 -67 20 -89
43 -90 20 0 20 31 -7 272 -5 46 -44 76 -61 48z"/>
<path d="M9998 5758 c-12 -17 -25 -23 -57 -23 -44 0 -49 -7 -30 -49 9 -20 22
-27 58 -32 25 -4 52 -11 59 -17 20 -16 22 -4 11 64 -13 77 -21 87 -41 57z"/>
<path d="M4144 5157 c-12 -12 -34 -30 -49 -41 -21 -14 -24 -20 -14 -27 23 -15
76 -10 98 9 29 23 33 76 6 79 -11 1 -30 -8 -41 -20z"/>
<path d="M3956 5092 c-3 -6 -1 -14 5 -17 15 -10 25 3 12 16 -7 7 -13 7 -17 1z"/>
<path d="M4017 5059 c-24 -14 -60 -86 -47 -94 19 -12 141 7 147 22 5 13 -57
83 -74 83 -4 0 -16 -5 -26 -11z"/>
<path d="M4235 4945 c-118 -32 -204 -64 -244 -93 -24 -18 -60 -34 -80 -38 -51
-9 -76 -23 -63 -36 7 -7 22 -6 46 2 20 6 50 9 66 5 26 -6 35 -1 80 45 48 49
54 52 88 46 20 -3 67 -6 105 -6 63 0 68 -2 79 -25 10 -22 17 -26 47 -23 36 3
36 3 39 56 2 31 -2 60 -9 68 -14 17 -85 17 -154 -1z"/>
<path d="M3762 4607 c-16 -19 -18 -49 -4 -54 7 -3 12 3 12 14 0 11 5 24 11 30
7 7 7 13 1 17 -5 3 -14 0 -20 -7z"/>
<path d="M4025 4522 c-19 -13 -70 -112 -111 -214 l-31 -78 23 0 c14 0 30 10
39 24 16 24 98 266 92 272 -1 2 -7 0 -12 -4z"/>
<path d="M6106 3399 c-10 -28 -29 -63 -41 -77 -32 -38 -40 -71 -21 -78 21 -8
48 14 42 35 -3 9 12 49 33 88 21 40 36 75 33 78 -15 15 -30 0 -46 -46z"/>
<path d="M8480 3256 c0 -2 37 -36 82 -76 l82 -72 18 22 c10 12 18 25 18 29 0
4 -33 24 -72 44 -75 37 -128 59 -128 53z"/>
<path d="M7862 2509 c14 -38 99 -159 111 -159 8 0 21 8 30 18 16 18 14 21 -46
73 -93 81 -102 88 -95 68z"/>
<path d="M3653 2118 c-27 -29 -213 -402 -213 -426 0 -23 30 -52 53 -52 9 0 27
15 40 33 38 49 207 394 207 420 0 49 -51 63 -87 25z"/>
<path d="M6973 2118 c-13 -6 -23 -17 -23 -24 0 -26 74 -164 88 -164 8 0 27 9
43 21 34 24 38 62 13 112 -34 66 -67 81 -121 55z"/>
<path d="M6306 1630 c16 -154 17 -155 48 -153 16 1 31 4 33 7 6 6 -64 187 -78
201 -7 7 -8 -12 -3 -55z"/>
<path d="M4654 1600 c-20 -44 -58 -169 -53 -174 2 -2 16 -7 31 -11 26 -7 27
-5 33 47 3 29 5 78 3 108 -3 50 -4 53 -14 30z"/>
</g>
</svg>
